<svg width="179" height="35" viewBox="0 0 179 35" fill="none" xmlns="http://www.w3.org/2000/svg">
<path d="M13.184 13.712C14.7627 14.0107 16.064 14.736 17.088 15.888C18.1547 17.04 18.688 18.4907 18.688 20.24C18.688 21.264 18.496 22.224 18.112 23.12C17.728 24.016 17.216 24.8053 16.576 25.488C15.936 26.1707 15.168 26.7253 14.272 27.152C13.376 27.5787 12.416 27.8133 11.392 27.856H11.072H0.64V0.719997H9.28C10.304 0.762664 11.264 0.997331 12.16 1.424C13.056 1.85067 13.824 2.40533 14.464 3.088C15.104 3.77067 15.616 4.56 16 5.456C16.384 6.352 16.576 7.312 16.576 8.336C16.576 9.70133 16.256 10.832 15.616 11.728C15.0187 12.5813 14.208 13.2427 13.184 13.712ZM4.48 12.112H8.96C10.0267 12.112 10.9227 11.7493 11.648 11.024C12.3733 10.2987 12.736 9.40267 12.736 8.336C12.736 7.26933 12.3733 6.37333 11.648 5.648C10.9227 4.92267 10.0267 4.56 8.96 4.56H4.48V12.112ZM11.072 24.016C12.096 24.016 12.9707 23.6533 13.696 22.928C14.464 22.2027 14.848 21.3067 14.848 20.24C14.848 19.216 14.464 18.256 13.696 17.36C12.9707 16.4213 12.096 15.952 11.072 15.952H4.48V24.016H11.072ZM38.1285 20.368C38.6832 21.7333 39.0672 23.0987 39.2805 24.464C39.4938 25.7867 39.6005 26.9173 39.6005 27.856H35.7605C35.7605 26.7893 35.6325 25.6587 35.3765 24.464C35.2912 24.5493 35.1845 24.656 35.0565 24.784C34.9285 24.8693 34.8218 24.9547 34.7365 25.04C32.4325 26.8747 29.7445 27.792 26.6725 27.792C24.8805 27.792 23.3658 27.28 22.1285 26.256C20.8912 25.1893 20.1658 23.76 19.9525 21.968C19.8245 20.048 20.4005 18.32 21.6805 16.784C23.1312 15.2053 25.0938 14.1813 27.5685 13.712C30.4272 13.2427 32.8378 13.8613 34.8005 15.568C34.8858 15.6533 34.9712 15.7173 35.0565 15.76C35.1418 15.8027 35.2272 15.8667 35.3125 15.952C35.3552 15.056 35.2272 14.1813 34.9285 13.328C34.6298 12.4747 34.0752 11.8133 33.2645 11.344C32.1125 10.704 30.9605 10.384 29.8085 10.384C28.8272 10.384 27.8885 10.5547 26.9925 10.896C26.1392 11.1947 25.3712 11.536 24.6885 11.92C24.0485 12.304 23.5152 12.6667 23.0885 13.008C22.7045 13.3067 22.5125 13.456 22.5125 13.456L19.9525 10.576C20.5072 10.0213 21.1685 9.50933 21.9365 9.04C22.7472 8.528 23.6005 8.10133 24.4965 7.76C25.3925 7.41867 26.2885 7.14133 27.1845 6.928C28.1232 6.71467 28.9978 6.608 29.8085 6.608C31.7712 6.608 33.5632 7.07733 35.1845 8.016C36.8485 8.99733 38.0005 10.4693 38.6405 12.432C39.3232 14.352 39.3658 16.4427 38.7685 18.704C38.6832 19.0027 38.5765 19.3013 38.4485 19.6C38.3632 19.856 38.2565 20.112 38.1285 20.368ZM26.6725 23.952C28.4218 23.952 29.8725 23.6107 31.0245 22.928C32.2192 22.2027 33.1578 21.328 33.8405 20.304C33.3712 19.4507 32.7525 18.768 31.9845 18.256C31.2165 17.7013 30.3418 17.424 29.3605 17.424C29.1898 17.424 29.0192 17.424 28.8485 17.424C28.6778 17.424 28.4858 17.4453 28.2725 17.488C26.6512 17.7867 25.4778 18.3413 24.7525 19.152C24.0272 19.9627 23.7072 20.7947 23.7925 21.648C23.8778 22.2027 24.1338 22.736 24.5605 23.248C24.9872 23.7173 25.6912 23.952 26.6725 23.952ZM49.7205 22.8C50.3178 23.44 50.8725 23.824 51.3845 23.952C51.9392 24.0373 52.3445 24.08 52.6005 24.08V27.92C51.7472 27.92 50.8298 27.7707 49.8485 27.472C48.9098 27.1307 47.9925 26.5333 47.0965 25.68C47.0112 25.7653 46.9258 25.8293 46.8405 25.872C45.1338 27.1947 43.1712 27.856 40.9525 27.856V24.016C42.4458 24.016 43.7685 23.504 44.9205 22.48C43.9392 20.2187 43.2992 17.872 43.0005 15.44C42.7445 13.008 42.6165 10.576 42.6165 8.144C42.6165 7.33333 42.7018 6.50133 42.8725 5.648C43.0858 4.752 43.4058 3.94133 43.8325 3.216C44.3018 2.448 44.8778 1.82933 45.5605 1.36C46.2432 0.890664 47.0752 0.655998 48.0565 0.655998C49.0378 0.655998 49.8698 0.890664 50.5525 1.36C51.2352 1.78667 51.7898 2.36267 52.2165 3.088C52.6432 3.77067 52.9632 4.56 53.1765 5.456C53.3898 6.30933 53.4965 7.14133 53.4965 7.952C53.4965 10.4267 53.2405 12.7947 52.7285 15.056C52.2592 17.2747 51.5765 19.28 50.6805 21.072C50.5525 21.4133 50.4032 21.7333 50.2325 22.032C50.0618 22.288 49.8912 22.544 49.7205 22.8ZM47.6085 18.64C48.2485 17.1893 48.7392 15.5467 49.0805 13.712C49.4645 11.8773 49.6565 9.95733 49.6565 7.952C49.6565 6.71467 49.4645 5.84 49.0805 5.328C48.7392 4.77333 48.3978 4.496 48.0565 4.496C47.7152 4.496 47.3525 4.79467 46.9685 5.392C46.6272 5.98933 46.4565 6.90667 46.4565 8.144C46.4565 12.4533 46.8405 15.952 47.6085 18.64ZM63.533 22.8C64.1303 23.44 64.685 23.824 65.197 23.952C65.7517 24.0373 66.157 24.08 66.413 24.08V27.92C65.5597 27.92 64.6423 27.7707 63.661 27.472C62.7223 27.1307 61.805 26.5333 60.909 25.68C60.8237 25.7653 60.7383 25.8293 60.653 25.872C58.9463 27.1947 56.9837 27.856 54.765 27.856V24.016C56.2583 24.016 57.581 23.504 58.733 22.48C57.7517 20.2187 57.1117 17.872 56.813 15.44C56.557 13.008 56.429 10.576 56.429 8.144C56.429 7.33333 56.5143 6.50133 56.685 5.648C56.8983 4.752 57.2183 3.94133 57.645 3.216C58.1143 2.448 58.6903 1.82933 59.373 1.36C60.0557 0.890664 60.8877 0.655998 61.869 0.655998C62.8503 0.655998 63.6823 0.890664 64.365 1.36C65.0477 1.78667 65.6023 2.36267 66.029 3.088C66.4557 3.77067 66.7757 4.56 66.989 5.456C67.2023 6.30933 67.309 7.14133 67.309 7.952C67.309 10.4267 67.053 12.7947 66.541 15.056C66.0717 17.2747 65.389 19.28 64.493 21.072C64.365 21.4133 64.2157 21.7333 64.045 22.032C63.8743 22.288 63.7037 22.544 63.533 22.8ZM61.421 18.64C62.061 17.1893 62.5517 15.5467 62.893 13.712C63.277 11.8773 63.469 9.95733 63.469 7.952C63.469 6.71467 63.277 5.84 62.893 5.328C62.5517 4.77333 62.2103 4.496 61.869 4.496C61.5277 4.496 61.165 4.79467 60.781 5.392C60.4397 5.98933 60.269 6.90667 60.269 8.144C60.269 12.4533 60.653 15.952 61.421 18.64ZM88.6095 6.352C89.1215 9.68 89.4202 12.816 89.5055 15.76C89.6335 18.704 89.5268 21.1147 89.1855 22.992V23.184C88.8442 24.7627 88.3748 26.2347 87.7775 27.6C87.2228 28.9227 86.4762 30.0747 85.5375 31.056C84.6415 32.0373 83.5535 32.8267 82.2735 33.424C80.9935 33.9787 79.4575 34.256 77.6655 34.256C77.1962 34.256 76.7268 34.2347 76.2575 34.192C75.7882 34.1493 75.3188 34.0853 74.8495 34L75.4255 30.224C79.0095 30.7787 81.6335 30.0107 83.2975 27.92C84.0228 26.9813 84.5135 26 84.7695 24.976C85.0682 23.9093 85.2815 23.0773 85.4095 22.48V22.288C85.4095 22.2027 85.4095 22.16 85.4095 22.16C85.4522 22.1173 85.4735 22.0747 85.4735 22.032C85.1748 22.7147 84.7908 23.4613 84.3215 24.272C83.8522 25.04 83.3188 25.7653 82.7215 26.448C82.1668 27.1307 81.5268 27.7067 80.8015 28.176C80.0762 28.6453 79.2868 28.88 78.4335 28.88C77.5802 28.88 76.8975 28.7307 76.3855 28.432C75.8735 28.1333 75.4895 27.8133 75.2335 27.472C74.7215 26.8747 74.3588 26.1707 74.1455 25.36C73.9748 24.5493 73.8895 23.6747 73.8895 22.736C73.8895 21.7547 73.9535 20.7093 74.0815 19.6C74.2522 18.4907 74.4228 17.36 74.5935 16.208C74.8495 14.672 75.0415 13.2427 75.1695 11.92C75.1695 11.024 75.1482 10.4693 75.1055 10.256C74.5082 10.5973 73.9535 11.4933 73.4415 12.944C72.9295 14.3947 72.5882 16.3147 72.4175 18.704L68.5775 18.448C68.8335 14.608 69.5588 11.6213 70.7535 9.488C71.9908 7.35467 73.5908 6.288 75.5535 6.288C76.6202 6.288 77.4308 6.672 77.9855 7.44C78.7535 8.336 79.0948 9.59467 79.0095 11.216C78.9242 12.7947 78.7108 14.6507 78.3695 16.784C78.2415 17.7653 78.1135 18.7253 77.9855 19.664C77.8575 20.56 77.7722 21.4347 77.7295 22.288C77.6868 23.312 77.7295 24.016 77.8575 24.4C77.9855 24.7413 78.0708 24.9333 78.1135 24.976C78.1135 24.976 78.1348 24.976 78.1775 24.976C78.2202 25.0187 78.3055 25.04 78.4335 25.04C78.5188 25.04 78.6895 24.976 78.9455 24.848C79.2015 24.6773 79.5002 24.3787 79.8415 23.952C80.5668 23.0987 81.2708 21.9467 81.9535 20.496C82.6362 19.0453 83.2335 17.424 83.7455 15.632C84.2148 13.8827 84.5348 12.24 84.7055 10.704C84.9188 9.168 84.9402 7.90933 84.7695 6.928L88.6095 6.352ZM121.556 10.832C121.385 11.8987 121.001 12.944 120.404 13.968C119.849 14.992 119.166 15.952 118.356 16.848C117.545 17.7013 116.649 18.4693 115.668 19.152C114.686 19.8347 113.705 20.3893 112.724 20.816C113.193 21.5413 113.897 22.2667 114.836 22.992C115.817 23.6747 117.076 24.016 118.612 24.016V27.856C116.393 27.856 114.494 27.344 112.916 26.32C111.38 25.296 110.057 23.8667 108.948 22.032L107.988 22.224C107.902 23.12 107.817 24.0373 107.732 24.976C107.689 25.9147 107.668 26.8747 107.668 27.856H103.828C103.828 25.5947 103.956 23.44 104.212 21.392C104.468 19.344 104.809 17.424 105.236 15.632V15.504C105.577 14.096 105.94 12.7733 106.324 11.536C106.708 10.2987 107.07 9.18933 107.411 8.208C108.308 5.73333 109.118 3.792 109.844 2.384C110.612 0.975999 111.017 0.229332 111.06 0.143997L114.388 2.128C114.345 2.17067 114.132 2.576 113.748 3.344C113.364 4.06933 112.873 5.11467 112.276 6.48C112.617 6.224 112.894 6.05333 113.108 5.968C114.26 5.328 115.433 5.008 116.628 5.008C117.396 5.008 118.1 5.136 118.74 5.392C119.849 5.81867 120.638 6.52267 121.108 7.504C121.62 8.44267 121.769 9.552 121.556 10.832ZM117.78 10.192C117.865 9.72267 117.844 9.424 117.716 9.296C117.588 9.168 117.481 9.06133 117.396 8.976C116.713 8.72 115.881 8.848 114.9 9.36C114.217 9.70133 113.534 10.192 112.852 10.832C112.212 11.4293 111.614 12.0907 111.06 12.816C110.548 13.4987 110.1 14.1813 109.716 14.864C109.374 15.504 109.14 16.0373 109.012 16.464L108.628 18.192C109.524 17.9787 110.462 17.6373 111.444 17.168C112.468 16.656 113.406 16.0587 114.26 15.376C115.156 14.6507 115.924 13.8613 116.564 13.008C117.204 12.112 117.609 11.1733 117.78 10.192ZM136.969 9.232C137.95 10.2987 138.654 11.6 139.081 13.136C139.507 14.6293 139.635 16.272 139.465 18.064C139.294 19.6853 138.91 21.1147 138.312 22.352C137.715 23.5467 136.969 24.5707 136.073 25.424C135.177 26.2347 134.195 26.8533 133.129 27.28C132.062 27.7067 130.995 27.92 129.929 27.92C128.905 27.92 127.945 27.728 127.049 27.344C126.153 26.96 125.406 26.4053 124.809 25.68C124.254 25.0827 123.763 24.1867 123.337 22.992C122.953 21.7547 122.91 20.1333 123.209 18.128L126.985 18.704C126.643 20.752 126.878 22.2453 127.689 23.184C128.03 23.5253 128.393 23.76 128.777 23.888C129.203 24.016 129.587 24.08 129.929 24.08C130.782 24.08 131.55 23.888 132.233 23.504C132.915 23.12 133.491 22.6293 133.961 22.032C134.473 21.4347 134.857 20.752 135.113 19.984C135.411 19.216 135.582 18.448 135.625 17.68C135.753 16.4853 135.667 15.376 135.369 14.352C135.113 13.2853 134.686 12.432 134.089 11.792C133.363 10.9387 132.318 10.512 130.953 10.512C129.971 10.512 129.182 10.704 128.585 11.088C127.987 11.4293 127.582 11.8133 127.369 12.24C127.283 12.4533 127.219 12.688 127.177 12.944C127.177 13.1573 127.283 13.392 127.497 13.648C127.71 13.9467 128.094 14.2027 128.649 14.416C129.203 14.5867 129.971 14.672 130.953 14.672C131.422 14.672 131.913 14.6507 132.425 14.608C132.937 14.5653 133.491 14.48 134.089 14.352L134.857 18.128C133.491 18.4267 132.19 18.576 130.953 18.576C129.033 18.576 127.561 18.2773 126.536 17.68C125.555 17.0827 124.851 16.528 124.424 16.016C123.827 15.2053 123.486 14.3307 123.401 13.392C123.315 12.4107 123.507 11.472 123.977 10.576C124.574 9.33867 125.491 8.37867 126.729 7.696C127.966 7.01333 129.374 6.672 130.953 6.672C133.385 6.672 135.39 7.52533 136.969 9.232ZM158.556 10.832C158.385 11.8987 158.001 12.944 157.404 13.968C156.849 14.992 156.166 15.952 155.356 16.848C154.545 17.7013 153.649 18.4693 152.668 19.152C151.686 19.8347 150.705 20.3893 149.724 20.816C150.193 21.5413 150.897 22.2667 151.836 22.992C152.817 23.6747 154.076 24.016 155.612 24.016V27.856C153.393 27.856 151.494 27.344 149.916 26.32C148.38 25.296 147.057 23.8667 145.948 22.032L144.988 22.224C144.902 23.12 144.817 24.0373 144.732 24.976C144.689 25.9147 144.668 26.8747 144.668 27.856H140.828C140.828 25.5947 140.956 23.44 141.212 21.392C141.468 19.344 141.809 17.424 142.236 15.632V15.504C142.577 14.096 142.94 12.7733 143.324 11.536C143.708 10.2987 144.07 9.18933 144.411 8.208C145.308 5.73333 146.118 3.792 146.844 2.384C147.612 0.975999 148.017 0.229332 148.06 0.143997L151.388 2.128C151.345 2.17067 151.132 2.576 150.748 3.344C150.364 4.06933 149.873 5.11467 149.276 6.48C149.617 6.224 149.894 6.05333 150.108 5.968C151.26 5.328 152.433 5.008 153.628 5.008C154.396 5.008 155.1 5.136 155.74 5.392C156.849 5.81867 157.638 6.52267 158.108 7.504C158.62 8.44267 158.769 9.552 158.556 10.832ZM154.78 10.192C154.865 9.72267 154.844 9.424 154.716 9.296C154.588 9.168 154.481 9.06133 154.396 8.976C153.713 8.72 152.881 8.848 151.9 9.36C151.217 9.70133 150.534 10.192 149.852 10.832C149.212 11.4293 148.614 12.0907 148.06 12.816C147.548 13.4987 147.1 14.1813 146.716 14.864C146.374 15.504 146.14 16.0373 146.012 16.464L145.628 18.192C146.524 17.9787 147.462 17.6373 148.444 17.168C149.468 16.656 150.406 16.0587 151.26 15.376C152.156 14.6507 152.924 13.8613 153.564 13.008C154.204 12.112 154.609 11.1733 154.78 10.192ZM178.543 20.112C177.945 22.672 176.687 24.592 174.767 25.872C172.847 27.152 170.607 27.792 168.047 27.792C165.828 27.792 164.036 27.1733 162.671 25.936C161.305 24.6987 160.388 23.0347 159.919 20.944C159.705 20.944 159.492 20.944 159.279 20.944C159.108 20.944 158.916 20.9227 158.703 20.88L158.767 17.04C158.98 17.0827 159.151 17.104 159.279 17.104C159.449 17.104 159.641 17.104 159.855 17.104C160.025 15.6533 160.409 14.288 161.007 13.008C161.647 11.728 162.436 10.6187 163.375 9.68C164.356 8.69866 165.487 7.93067 166.767 7.376C168.089 6.82133 169.497 6.544 170.991 6.544C172.271 6.544 173.508 6.864 174.703 7.504C175.897 8.10133 176.665 9.08267 177.007 10.448C177.391 11.8133 177.241 13.2213 176.559 14.672C175.876 16.08 174.788 17.2747 173.295 18.256C171.119 19.6213 167.961 20.4533 163.823 20.752C164.036 21.52 164.441 22.2453 165.039 22.928C165.679 23.6107 166.681 23.952 168.047 23.952C171.759 23.952 174.02 22.352 174.831 19.152L178.543 20.112ZM163.759 16.912C165.807 16.7413 167.407 16.4853 168.559 16.144C169.711 15.76 170.585 15.376 171.183 14.992C172.036 14.4373 172.633 13.84 172.975 13.2C173.316 12.56 173.423 12.0053 173.295 11.536C173.167 11.024 172.825 10.704 172.271 10.576C171.716 10.448 171.289 10.384 170.991 10.384C169.071 10.384 167.471 11.024 166.191 12.304C164.911 13.584 164.1 15.12 163.759 16.912Z" fill="white"/>
</svg>
