<svg width="29" height="28" viewBox="0 0 29 28" fill="none" xmlns="http://www.w3.org/2000/svg">
    <path fill-rule="evenodd" clip-rule="evenodd"
        d="M12.8282 2.79648C13.5336 3.32936 14.1493 4.10456 14.6015 5.07878C14.9436 4.50511 15.3604 4.029 15.8295 3.67553C16.3864 3.25593 17.0436 2.99287 17.738 3.00052C18.4467 3.00832 19.1107 3.29821 19.6488 3.8362C20.1933 4.38062 20.4912 5.04817 20.5038 5.76235C20.5161 6.46312 20.2531 7.12442 19.8321 7.68342C19.7504 7.7919 19.6622 7.89752 19.5677 8.00003H22.5002C24.3436 8.00003 25.7512 9.64631 25.4644 11.4669L23.9306 21.2003C23.5858 23.3883 21.6997 25 19.4843 25H9.5081C7.29077 25 5.40373 23.3856 5.06104 21.1955L3.5383 11.4637C3.2536 9.64409 4.66083 8.00003 6.50301 8.00003H8.80913C8.59804 7.80258 8.40931 7.59289 8.24476 7.3725C7.74653 6.70517 7.46259 5.92336 7.50332 5.10519C7.54439 4.28027 7.91137 3.50754 8.55543 2.86362C9.79535 1.62394 11.5283 1.81464 12.8282 2.79648ZM11.7428 4.23266C12.5429 4.837 13.3373 6.09506 13.5487 8.00003H13.111C11.3861 7.74246 10.234 7.02765 9.6876 6.2958C9.39506 5.90398 9.28509 5.52542 9.30156 5.19466C9.31769 4.87066 9.459 4.50588 9.82858 4.13638C10.2528 3.71223 10.9354 3.62282 11.7428 4.23266ZM15.7117 8.00003H15.4795C15.6827 6.55278 16.3029 5.57283 16.9131 5.11301C17.2221 4.88022 17.5008 4.79801 17.7182 4.80041C17.9212 4.80264 18.1447 4.87811 18.3757 5.10898C18.6209 5.35415 18.7 5.58769 18.7036 5.79404C18.7075 6.01379 18.626 6.29243 18.3938 6.6007C17.9558 7.18229 17.0431 7.7702 15.7117 8.00003ZM5.51478 11.1546C5.41987 10.548 5.88895 10 6.50301 10H12.6338L11.6701 11.4453C11.3636 11.9049 11.4878 12.5257 11.9475 12.8321C12.4071 13.1384 13.0282 13.0143 13.3346 12.5547L14.5509 10.7307L16.7034 13.6C17.0348 14.0419 17.6618 14.1314 18.1037 13.8C18.5457 13.4687 18.6352 12.8419 18.3038 12.4L16.5033 10H22.5002C23.1147 10 23.5839 10.5488 23.4882 11.1556L22.9308 14.6933L21.376 14.0715C20.8631 13.8664 20.2809 14.1159 20.0758 14.6286C19.8706 15.1414 20.1201 15.7234 20.633 15.9285L22.6114 16.7197L22.2292 19.1452L5.84881 13.0626C5.83633 13.058 5.82382 13.0536 5.81127 13.0495L5.51478 11.1546ZM6.16556 15.3137L6.52704 17.624L12.8295 19.805C13.3515 19.9857 13.6282 20.5552 13.4475 21.0771C13.2668 21.599 12.6972 21.8757 12.1751 21.695L6.87715 19.8616L7.03751 20.8864C7.22789 22.1031 8.27625 23 9.5081 23H19.4843C20.6233 23 21.6055 22.2332 21.8975 21.1555L6.16556 15.3137Z"
        fill="white" />
</svg>
