<svg width="29" height="28" viewBox="0 0 29 28" fill="none" xmlns="http://www.w3.org/2000/svg">
    <path fill-rule="evenodd" clip-rule="evenodd"
        d="M3.5 8C3.5 6.60355 3.5 5.90533 3.69641 5.34402C4.0482 4.33866 4.83866 3.5482 5.84402 3.19641C6.40533 3 7.10355 3 8.5 3C9.89645 3 10.5947 3 11.156 3.19641C12.1613 3.5482 12.9518 4.33866 13.3036 5.34402C13.5 5.90533 13.5 6.60355 13.5 8C13.5 9.39645 13.5 10.0947 13.3036 10.656C12.9518 11.6613 12.1613 12.4518 11.156 12.8036C10.5947 13 9.89645 13 8.5 13C7.10355 13 6.40533 13 5.84402 12.8036C4.83866 12.4518 4.0482 11.6613 3.69641 10.656C3.5 10.0947 3.5 9.39645 3.5 8ZM5.5 7.4C5.5 6.55992 5.5 6.13988 5.66349 5.81901C5.8073 5.53677 6.03677 5.3073 6.31901 5.16349C6.63988 5 7.05992 5 7.9 5H9.1C9.94008 5 10.3601 5 10.681 5.16349C10.9632 5.3073 11.1927 5.53677 11.3365 5.81901C11.5 6.13988 11.5 6.55992 11.5 7.4V8.6C11.5 9.44008 11.5 9.86012 11.3365 10.181C11.1927 10.4632 10.9632 10.6927 10.681 10.8365C10.3601 11 9.94008 11 9.1 11H7.9C7.05992 11 6.63988 11 6.31901 10.8365C6.03677 10.6927 5.8073 10.4632 5.66349 10.181C5.5 9.86012 5.5 9.44008 5.5 8.6V7.4ZM3.5 20C3.5 18.6036 3.5 17.9053 3.69641 17.344C4.0482 16.3387 4.83866 15.5482 5.84402 15.1964C6.40533 15 7.10355 15 8.5 15C9.89645 15 10.5947 15 11.156 15.1964C12.1613 15.5482 12.9518 16.3387 13.3036 17.344C13.5 17.9053 13.5 18.6036 13.5 20C13.5 21.3965 13.5 22.0947 13.3036 22.656C12.9518 23.6613 12.1613 24.4518 11.156 24.8036C10.5947 25 9.89645 25 8.5 25C7.10355 25 6.40533 25 5.84402 24.8036C4.83866 24.4518 4.0482 23.6613 3.69641 22.656C3.5 22.0947 3.5 21.3965 3.5 20ZM5.5 19.4C5.5 18.5599 5.5 18.1399 5.66349 17.819C5.8073 17.5368 6.03677 17.3073 6.31901 17.1635C6.63988 17 7.05992 17 7.9 17H9.1C9.94008 17 10.3601 17 10.681 17.1635C10.9632 17.3073 11.1927 17.5368 11.3365 17.819C11.5 18.1399 11.5 18.5599 11.5 19.4V20.6C11.5 21.4401 11.5 21.8601 11.3365 22.181C11.1927 22.4632 10.9632 22.6927 10.681 22.8365C10.3601 23 9.94008 23 9.1 23H7.9C7.05992 23 6.63988 23 6.31901 22.8365C6.03677 22.6927 5.8073 22.4632 5.66349 22.181C5.5 21.8601 5.5 21.4401 5.5 20.6V19.4ZM15.6964 5.34402C15.5 5.90533 15.5 6.60355 15.5 8C15.5 9.39645 15.5 10.0947 15.6964 10.656C16.0482 11.6613 16.8387 12.4518 17.844 12.8036C18.4053 13 19.1036 13 20.5 13C21.8965 13 22.5947 13 23.156 12.8036C24.1613 12.4518 24.9518 11.6613 25.3036 10.656C25.5 10.0947 25.5 9.39645 25.5 8C25.5 6.60355 25.5 5.90533 25.3036 5.34402C24.9518 4.33866 24.1613 3.5482 23.156 3.19641C22.5947 3 21.8965 3 20.5 3C19.1036 3 18.4053 3 17.844 3.19641C16.8387 3.5482 16.0482 4.33866 15.6964 5.34402ZM17.6635 5.81901C17.5 6.13988 17.5 6.55992 17.5 7.4V8.6C17.5 9.44008 17.5 9.86012 17.6635 10.181C17.8073 10.4632 18.0368 10.6927 18.319 10.8365C18.6399 11 19.0599 11 19.9 11H21.1C21.9401 11 22.3601 11 22.681 10.8365C22.9632 10.6927 23.1927 10.4632 23.3365 10.181C23.5 9.86012 23.5 9.44008 23.5 8.6V7.4C23.5 6.55992 23.5 6.13988 23.3365 5.81901C23.1927 5.53677 22.9632 5.3073 22.681 5.16349C22.3601 5 21.9401 5 21.1 5H19.9C19.0599 5 18.6399 5 18.319 5.16349C18.0368 5.3073 17.8073 5.53677 17.6635 5.81901ZM15.5 20C15.5 18.6036 15.5 17.9053 15.6964 17.344C16.0482 16.3387 16.8387 15.5482 17.844 15.1964C18.4053 15 19.1036 15 20.5 15C21.8965 15 22.5947 15 23.156 15.1964C24.1613 15.5482 24.9518 16.3387 25.3036 17.344C25.5 17.9053 25.5 18.6036 25.5 20C25.5 21.3965 25.5 22.0947 25.3036 22.656C24.9518 23.6613 24.1613 24.4518 23.156 24.8036C22.5947 25 21.8965 25 20.5 25C19.1036 25 18.4053 25 17.844 24.8036C16.8387 24.4518 16.0482 23.6613 15.6964 22.656C15.5 22.0947 15.5 21.3965 15.5 20ZM17.5 19.4C17.5 18.5599 17.5 18.1399 17.6635 17.819C17.8073 17.5368 18.0368 17.3073 18.319 17.1635C18.6399 17 19.0599 17 19.9 17H21.1C21.9401 17 22.3601 17 22.681 17.1635C22.9632 17.3073 23.1927 17.5368 23.3365 17.819C23.5 18.1399 23.5 18.5599 23.5 19.4V20.6C23.5 21.4401 23.5 21.8601 23.3365 22.181C23.1927 22.4632 22.9632 22.6927 22.681 22.8365C22.3601 23 21.9401 23 21.1 23H19.9C19.0599 23 18.6399 23 18.319 22.8365C18.0368 22.6927 17.8073 22.4632 17.6635 22.181C17.5 21.8601 17.5 21.4401 17.5 20.6V19.4Z"
        fill="white" />
</svg>
