<svg width="13" height="12" viewBox="0 0 13 12" fill="none" xmlns="http://www.w3.org/2000/svg">
<path fill-rule="evenodd" clip-rule="evenodd" d="M12.5 6C12.5 9.31371 9.81371 12 6.5 12C3.18629 12 0.5 9.31371 0.5 6C0.5 2.68629 3.18629 0 6.5 0C9.81371 0 12.5 2.68629 12.5 6ZM9.28033 5.03033C9.57322 4.73744 9.57322 4.26256 9.28033 3.96967C8.98744 3.67678 8.51256 3.67678 8.21967 3.96967L5.5 6.68934L4.78033 5.96967C4.48744 5.67678 4.01256 5.67678 3.71967 5.96967C3.42678 6.26256 3.42678 6.73744 3.71967 7.03033L4.96967 8.28033C5.26256 8.57322 5.73744 8.57322 6.03033 8.28033L9.28033 5.03033Z" fill="#0F0B0F"/>
</svg>
