<svg width="24" height="24" viewBox="0 0 24 24" fill="none" xmlns="http://www.w3.org/2000/svg">
<path fill-rule="evenodd" clip-rule="evenodd" d="M11.6974 2.15244C11.8931 2.08253 12.1071 2.08253 12.3028 2.15244L19.3028 4.65244C19.661 4.78036 19.9001 5.11965 19.9001 5.50001V13C19.9001 15.8507 18.3319 18.0768 16.6572 19.5506C15.8145 20.2922 14.9201 20.8669 14.1257 21.2598C13.3682 21.6345 12.5894 21.9 12.0001 21.9C11.4108 21.9 10.632 21.6345 9.87452 21.2598C9.08005 20.8669 8.18569 20.2922 7.34303 19.5506C5.66825 18.0768 4.1001 15.8507 4.1001 13V5.50001C4.1001 5.11965 4.3392 4.78036 4.69739 4.65244L11.6974 2.15244ZM5.9001 6.13425V13C5.9001 15.1493 7.08194 16.9232 8.53216 18.1994C9.25201 18.8328 10.0139 19.3206 10.6726 19.6464C11.3682 19.9905 11.8394 20.1 12.0001 20.1C12.1608 20.1 12.632 19.9905 13.3276 19.6464C13.9863 19.3206 14.7482 18.8328 15.468 18.1994C16.9183 16.9232 18.1001 15.1493 18.1001 13V6.13425L12.0001 3.95568L5.9001 6.13425Z" fill="white"/>
<path fill-rule="evenodd" clip-rule="evenodd" d="M16.1365 9.36361C16.488 9.71508 16.488 10.2849 16.1365 10.6364L11.6365 15.1364C11.285 15.4879 10.7152 15.4879 10.3637 15.1364L7.8637 12.6364C7.51223 12.2849 7.51223 11.7151 7.8637 11.3636C8.21517 11.0121 8.78502 11.0121 9.13649 11.3636L11.0001 13.2272L14.8637 9.36361C15.2152 9.01214 15.785 9.01214 16.1365 9.36361Z" fill="white"/>
</svg>
