<svg width="16" height="16" viewBox="0 0 16 16" fill="none" xmlns="http://www.w3.org/2000/svg">
<g clip-path="url(#clip0_1168_2829)">
<path fill-rule="evenodd" clip-rule="evenodd" d="M7.99967 0.833496C4.04163 0.833496 0.833008 4.04212 0.833008 8.00016C0.833008 11.9582 4.04163 15.1668 7.99967 15.1668C11.9577 15.1668 15.1663 11.9582 15.1663 8.00016C15.1663 4.04212 11.9577 0.833496 7.99967 0.833496ZM8.66634 5.3335C8.66634 4.96531 8.36787 4.66683 7.99967 4.66683C7.63147 4.66683 7.33301 4.96531 7.33301 5.3335V8.00016C7.33301 8.17696 7.40327 8.34656 7.52827 8.47156L8.86161 9.8049C9.12194 10.0652 9.54407 10.0652 9.80441 9.8049C10.0647 9.54456 10.0647 9.12243 9.80441 8.8621L8.66634 7.72403V5.3335Z" fill="white"/>
</g>
<defs>
<clipPath id="clip0_1168_2829">
<rect width="16" height="16" fill="white"/>
</clipPath>
</defs>
</svg>
