<svg width="16" height="16" viewBox="0 0 16 16" fill="none" xmlns="http://www.w3.org/2000/svg">
<g clip-path="url(#clip0_50_903)">
<path d="M2.00012 8.0001C2.00012 8.78803 2.15532 9.56825 2.45684 10.2962C2.75837 11.0242 3.20033 11.6856 3.75748 12.2427C4.31463 12.7999 4.97607 13.2418 5.70402 13.5434C6.43198 13.8449 7.21219 14.0001 8.00012 14.0001C8.78805 14.0001 9.56827 13.8449 10.2962 13.5434C11.0242 13.2418 11.6856 12.7999 12.2428 12.2427C12.7999 11.6856 13.2419 11.0242 13.5434 10.2962C13.8449 9.56825 14.0001 8.78803 14.0001 8.0001C14.0001 6.4088 13.368 4.88268 12.2428 3.75746C11.1175 2.63224 9.59142 2.0001 8.00012 2.0001C6.40882 2.0001 4.8827 2.63224 3.75748 3.75746C2.63226 4.88268 2.00012 6.4088 2.00012 8.0001Z" stroke="white" stroke-width="1.33333" stroke-linecap="round" stroke-linejoin="round"/>
<path d="M8.00012 4.66689V8.00023L10.0001 10.0002" stroke="white" stroke-width="1.33333" stroke-linecap="round" stroke-linejoin="round"/>
</g>
<defs>
<clipPath id="clip0_50_903">
<rect width="16" height="16" fill="white"/>
</clipPath>
</defs>
</svg>
