<svg width="25" height="24" viewBox="0 0 25 24" fill="none" xmlns="http://www.w3.org/2000/svg">
<path fill-rule="evenodd" clip-rule="evenodd" d="M4.48812 5.50189L4.38781 5.54634C3.93859 5.7451 3.52267 5.92913 3.20383 6.2346C2.92518 6.50157 2.71212 6.82943 2.58133 7.19249C2.43167 7.60792 2.43243 8.06273 2.43324 8.55396L2.43336 8.66368V15.4403L2.43323 15.5456C2.43239 16.003 2.43159 16.4394 2.57541 16.8386C2.70097 17.1871 2.90551 17.5019 3.17301 17.7582C3.47941 18.0517 3.87848 18.2282 4.29679 18.4132L4.3931 18.4559L10.7461 21.2795C11.1479 21.4585 11.4869 21.6095 11.8505 21.6709C12.1701 21.7249 12.4966 21.7249 12.8162 21.6709C13.1798 21.6095 13.5188 21.4585 13.9206 21.2795L20.2736 18.4559L20.3699 18.4132C20.7882 18.2282 21.1873 18.0517 21.4937 17.7582C21.7612 17.5019 21.9658 17.1871 22.0913 16.8386C22.2351 16.4394 22.2343 16.003 22.2335 15.5456L22.2334 15.4403V8.66368L22.2335 8.55395C22.2343 8.06272 22.2351 7.60792 22.0854 7.19249C21.9546 6.82943 21.7415 6.50157 21.4629 6.2346C21.1441 5.92913 20.7281 5.7451 20.2789 5.54634L20.1786 5.50189L13.9207 2.72053C13.5188 2.54153 13.1798 2.39051 12.8162 2.32912C12.4966 2.27514 12.1701 2.27514 11.8505 2.32912C11.4869 2.39051 11.1479 2.54153 10.7461 2.72053L4.48812 5.50189ZM12.5165 4.10399C12.3953 4.08352 12.2714 4.08352 12.1502 4.10399C12.0395 4.12268 11.92 4.16862 11.3992 4.40005L10.0494 5L16.8334 8.01511L19.1174 7L13.2675 4.40005C12.7468 4.16862 12.6272 4.12268 12.5165 4.10399ZM20.4324 8.38532L17.2022 9.82096C17.2002 9.82187 17.1981 9.82278 17.1961 9.82367L13.9207 11.2795C13.6747 11.389 13.4523 11.4881 13.2334 11.5626V19.6151L19.5426 16.811C20.1213 16.5538 20.2 16.5049 20.2484 16.4584C20.3153 16.3944 20.3665 16.3157 20.3979 16.2285C20.4206 16.1654 20.4334 16.0737 20.4334 15.4403V8.66368C20.4334 8.55758 20.433 8.46549 20.4324 8.38532ZM11.4334 11.5626C11.2144 11.4881 10.992 11.389 10.7461 11.2795L4.23433 8.38532C4.23368 8.46549 4.23336 8.55758 4.23336 8.66368V15.4403C4.23336 16.0737 4.24613 16.1654 4.26887 16.2285C4.30026 16.3157 4.3514 16.3944 4.41827 16.4584C4.46672 16.5049 4.54538 16.5538 5.12415 16.811L11.4334 19.6151V11.5626ZM5.54935 7L11.3992 9.59995C11.92 9.83138 12.0395 9.87732 12.1502 9.89601C12.2714 9.91648 12.3953 9.91648 12.5165 9.89601C12.6272 9.87732 12.7468 9.83138 13.2675 9.59995L14.6174 9L7.83336 5.98489L5.54935 7Z" fill="white"/>
</svg>
