<svg width="18" height="18" viewBox="0 0 18 18" fill="none" xmlns="http://www.w3.org/2000/svg">
<rect x="1" y="1" width="16" height="16" rx="8" fill="white"/>
<rect x="0.5" y="0.5" width="17" height="17" rx="8.5" stroke="white"/>
<path fill-rule="evenodd" clip-rule="evenodd" d="M17 9C17 13.4183 13.4183 17 9 17C4.58172 17 1 13.4183 1 9C1 4.58172 4.58172 1 9 1C13.4183 1 17 4.58172 17 9ZM12.7071 7.70711C13.0976 7.31658 13.0976 6.68342 12.7071 6.29289C12.3166 5.90237 11.6834 5.90237 11.2929 6.29289L7.66667 9.91912L6.70711 8.95956C6.31658 8.56904 5.68342 8.56904 5.29289 8.95956C4.90237 9.35008 4.90237 9.98325 5.29289 10.3738L6.95956 12.0404C7.35008 12.431 7.98325 12.431 8.37377 12.0404L12.7071 7.70711Z" fill="#00B749"/>
</svg>
