<svg width="37" height="37" viewBox="0 0 37 37" fill="none" xmlns="http://www.w3.org/2000/svg">
<rect x="2" y="2" width="33" height="33" rx="16.5" fill="white"/>
<rect x="1" y="1" width="35" height="35" rx="17.5" stroke="white" stroke-opacity="0.2" stroke-width="2"/>
<path fill-rule="evenodd" clip-rule="evenodd" d="M35 18.5C35 27.6127 27.6127 35 18.5 35C9.3873 35 2 27.6127 2 18.5C2 9.3873 9.3873 2 18.5 2C27.6127 2 35 9.3873 35 18.5ZM26.1459 15.8334C26.9514 15.028 26.9514 13.722 26.1459 12.9166C25.3405 12.1111 24.0345 12.1111 23.2291 12.9166L15.75 20.3957L13.7709 18.4166C12.9655 17.6111 11.6595 17.6111 10.8541 18.4166C10.0486 19.222 10.0486 20.528 10.8541 21.3334L14.2916 24.7709C15.097 25.5764 16.403 25.5764 17.2084 24.7709L26.1459 15.8334Z" fill="#00B749"/>
</svg>
