<svg width="24" height="24" viewBox="0 0 24 24" fill="none" xmlns="http://www.w3.org/2000/svg">
<path fill-rule="evenodd" clip-rule="evenodd" d="M19.167 10.333C18.2777 11.9997 16.9997 12.833 15.333 12.833C13.6663 12.833 12.3887 11.9997 11.5 10.333L11.813 2.5C11.8182 2.36558 11.8752 2.2384 11.9722 2.14517C12.0692 2.05193 12.1985 1.9999 12.333 2H12.675C12.764 2 12.837 2.07 12.841 2.158L13.125 7.833H14.542L14.825 2.158C14.8273 2.11529 14.8459 2.07509 14.877 2.04569C14.9081 2.01629 14.9492 1.99994 14.992 2H15.675C15.764 2 15.837 2.07 15.841 2.158L16.125 7.833H17.542L17.825 2.158C17.8273 2.11529 17.8459 2.07509 17.877 2.04569C17.9081 2.01629 17.9492 1.99994 17.992 2H18.333C18.613 2 18.843 2.22 18.853 2.5L19.167 10.333ZM16.258 13.545L16.476 21.143C16.4792 21.2544 16.46 21.3653 16.4196 21.4692C16.3792 21.573 16.3184 21.6677 16.2407 21.7476C16.163 21.8275 16.0701 21.891 15.9674 21.9344C15.8648 21.9777 15.7544 22 15.643 22H15.024C14.9126 22 14.8023 21.9777 14.6996 21.9344C14.5969 21.891 14.504 21.8275 14.4263 21.7476C14.3487 21.6677 14.2878 21.573 14.2474 21.4692C14.207 21.3653 14.1878 21.2544 14.191 21.143L14.408 13.545C14.7167 13.6263 15.025 13.667 15.333 13.667C15.6417 13.667 15.95 13.6263 16.258 13.545ZM9.50001 2.88V22H8.90101C8.6766 21.9999 8.45451 21.9545 8.24807 21.8665C8.04163 21.7785 7.85508 21.6498 7.69961 21.4879C7.54413 21.3261 7.42293 21.1346 7.34327 20.9248C7.2636 20.715 7.22712 20.4912 7.23601 20.267L7.50001 13.667C7.16667 12.8003 6.44434 12.2447 5.33301 12C5.33301 7.56533 6.23734 4.33967 8.04601 2.323C8.15856 2.19711 8.30672 2.10839 8.47085 2.06863C8.63497 2.02886 8.8073 2.03991 8.965 2.10032C9.1227 2.16073 9.25831 2.26765 9.35386 2.40689C9.4494 2.54613 9.50037 2.71113 9.50001 2.88Z" fill="white"/>
</svg>
