<svg width="26" height="28" viewBox="0 0 26 28" fill="none" xmlns="http://www.w3.org/2000/svg">
    <path
        d="M8.41904 4.88C5.09921 4.88 2.40796 7.80194 2.40796 11.4063C2.40796 15.0191 3.73886 16.8274 9.30962 21.5316L11.8691 23.6929C12.5343 24.2547 13.4658 24.2547 14.131 23.6929L16.6905 21.5316C22.2613 16.8274 23.5922 15.0191 23.5922 11.4063C23.5922 7.80194 20.9009 4.88 17.5811 4.88C15.8573 4.88 14.3226 5.73037 13.0001 7.36655C11.6775 5.73037 10.1428 4.88 8.41904 4.88ZM8.41904 6.88C9.81829 6.88 11.0796 7.73752 12.2425 9.56335L12.4319 9.86069C12.6489 10.2014 13.0792 10.2866 13.393 10.051C13.4615 9.99953 13.5209 9.93507 13.5682 9.86069L13.7576 9.56335C14.9206 7.73752 16.1818 6.88 17.5811 6.88C19.8835 6.88 21.7501 8.90651 21.7501 11.4063C21.7501 14.1866 20.7024 15.61 15.5596 19.9529L13.0001 22.1142L10.4406 19.9529C5.29772 15.61 4.25006 14.1866 4.25006 11.4063C4.25006 8.90651 6.11658 6.88 8.41904 6.88Z"
        fill="white" />
</svg>
