<svg width="29" height="28" viewBox="0 0 29 28" fill="none" xmlns="http://www.w3.org/2000/svg">
    <path fill-rule="evenodd" clip-rule="evenodd"
        d="M14.7164 5.65912C14.5759 5.61344 14.4244 5.61344 14.2838 5.65912C14.2684 5.66414 14.2029 5.68713 14.0294 5.83446C13.8465 5.98974 13.6215 6.21358 13.2627 6.57235L7.00272 12.8323C6.56383 13.2712 6.47017 13.3744 6.40591 13.4793C6.33554 13.5941 6.28369 13.7193 6.25225 13.8502C6.22354 13.9698 6.21679 14.109 6.21679 14.7297V20.5333C6.21679 21.0407 6.21761 21.3581 6.23715 21.5972C6.25569 21.8241 6.28571 21.8866 6.29309 21.9011C6.3602 22.0328 6.46729 22.1399 6.599 22.207C6.61348 22.2144 6.67602 22.2444 6.9029 22.263C7.14204 22.2825 7.45942 22.2833 7.96679 22.2833H11.1168V18.55C11.1168 16.6814 12.6316 15.1667 14.5001 15.1667C16.3687 15.1667 17.8835 16.6814 17.8835 18.55V22.2833H21.0335C21.5408 22.2833 21.8582 22.2825 22.0974 22.263C22.3242 22.2444 22.3868 22.2144 22.4013 22.207C22.533 22.1399 22.6401 22.0328 22.7072 21.9011C22.7145 21.8866 22.7446 21.8241 22.7631 21.5972C22.7826 21.3581 22.7835 21.0407 22.7835 20.5333V14.7297C22.7835 14.109 22.7767 13.9698 22.748 13.8502C22.7166 13.7193 22.6647 13.5941 22.5944 13.4793C22.5301 13.3744 22.4364 13.2712 21.9975 12.8323L15.7376 6.57235C15.3788 6.21358 15.1538 5.98974 14.9709 5.83446C14.7973 5.68713 14.7319 5.66414 14.7164 5.65912ZM13.6349 3.6619C14.1972 3.47918 14.803 3.47918 15.3654 3.6619C15.7495 3.78671 16.0571 4.00189 16.33 4.23354C16.5862 4.45108 16.872 4.73694 17.195 5.05994L23.4825 11.3474C23.5045 11.3695 23.5264 11.3913 23.548 11.4129C23.8875 11.7518 24.174 12.0379 24.3849 12.382C24.5704 12.6848 24.7071 13.0148 24.79 13.36C24.8842 13.7525 24.8839 14.1573 24.8835 14.6371C24.8835 14.6676 24.8835 14.6985 24.8835 14.7297V20.5722C24.8835 21.029 24.8835 21.4332 24.8561 21.7682C24.827 22.125 24.7616 22.4946 24.5783 22.8545C24.3098 23.3813 23.8815 23.8097 23.3546 24.0781C22.9948 24.2615 22.6251 24.3268 22.2684 24.356C21.9333 24.3834 21.5291 24.3833 21.0724 24.3833H17.0536C16.3521 24.3833 15.7835 23.8147 15.7835 23.1132V18.55C15.7835 17.8412 15.2089 17.2667 14.5001 17.2667C13.7914 17.2667 13.2168 17.8412 13.2168 18.55V23.1132C13.2168 23.8147 12.6481 24.3833 11.9467 24.3833H7.9279C7.47115 24.3833 7.06691 24.3834 6.7319 24.356C6.37515 24.3268 6.00549 24.2615 5.64562 24.0781C5.11877 23.8097 4.69042 23.3813 4.42198 22.8545C4.23862 22.4946 4.17327 22.125 4.14412 21.7682C4.11675 21.4332 4.11677 21.029 4.11679 20.5722L4.11679 14.7297C4.11679 14.6985 4.11677 14.6676 4.11675 14.6371C4.11637 14.1573 4.11605 13.7525 4.21028 13.36C4.29316 13.0148 4.42986 12.6848 4.61536 12.382C4.82625 12.0379 5.11275 11.7518 5.45224 11.4129C5.47388 11.3913 5.49573 11.3695 5.5178 11.3474L11.8053 5.05992C12.1282 4.73693 12.4141 4.45108 12.6703 4.23354C12.9432 4.00189 13.2508 3.78671 13.6349 3.6619Z"
        fill="white" />
</svg>
