<svg width="20" height="21" viewBox="0 0 20 21" fill="none" xmlns="http://www.w3.org/2000/svg">
<path fill-rule="evenodd" clip-rule="evenodd" d="M9.24301 2.1989C9.03717 1.93426 8.65917 1.87916 8.38642 2.07404C6.85487 3.16798 5.44425 4.71044 4.4138 6.4023C3.38637 8.08921 2.70801 9.97293 2.70801 11.7507C2.70801 15.7778 5.9726 19.0423 9.99967 19.0423C14.0268 19.0423 17.2913 15.7778 17.2913 11.7507C17.2913 9.11259 15.8809 5.67116 13.7635 3.65923C13.6343 3.53638 13.4586 3.47462 13.2808 3.48949C13.1032 3.50437 12.9403 3.59447 12.8332 3.73711L11.6575 5.30327L9.24301 2.1989ZM9.24976 8.04098C9.14101 7.89601 8.97476 7.80535 8.79401 7.7925C8.61326 7.77964 8.43584 7.84585 8.30773 7.97398C7.88623 8.39548 7.32652 8.97759 6.87251 9.67151C6.41905 10.3645 6.04134 11.2134 6.04134 12.1668C6.04134 14.5118 7.74637 16.5418 9.99967 16.5418C12.253 16.5418 13.958 14.5118 13.958 12.1668C13.958 11.4118 13.7848 10.6978 13.4768 10.0734C13.3919 9.90126 13.2326 9.77768 13.0448 9.73826C12.8568 9.69876 12.6613 9.74784 12.5143 9.87134L11.3534 10.8467L9.24976 8.04098Z" fill="white"/>
</svg>
