<svg width="18" height="18" viewBox="0 0 18 18" fill="none" xmlns="http://www.w3.org/2000/svg">
<g clip-path="url(#clip0_825_2081)">
<path d="M3.00024 6.00024C3.00024 5.20459 3.31631 4.44153 3.87892 3.87892C4.44153 3.31631 5.20459 3.00024 6.00024 3.00024H12.0002C12.7959 3.00024 13.559 3.31631 14.1216 3.87892C14.6842 4.44153 15.0002 5.20459 15.0002 6.00024V12.0002C15.0002 12.7959 14.6842 13.559 14.1216 14.1216C13.559 14.6842 12.7959 15.0002 12.0002 15.0002H6.00024C5.20459 15.0002 4.44153 14.6842 3.87892 14.1216C3.31631 13.559 3.00024 12.7959 3.00024 12.0002V6.00024Z" stroke="white" stroke-width="1.5" stroke-linecap="round" stroke-linejoin="round"/>
<path d="M6.75 9C6.75 9.59674 6.98705 10.169 7.40901 10.591C7.83097 11.0129 8.40326 11.25 9 11.25C9.59674 11.25 10.169 11.0129 10.591 10.591C11.0129 10.169 11.25 9.59674 11.25 9C11.25 8.40326 11.0129 7.83097 10.591 7.40901C10.169 6.98705 9.59674 6.75 9 6.75C8.40326 6.75 7.83097 6.98705 7.40901 7.40901C6.98705 7.83097 6.75 8.40326 6.75 9Z" stroke="white" stroke-width="1.5" stroke-linecap="round" stroke-linejoin="round"/>
<path d="M12.375 5.625V5.63333" stroke="white" stroke-width="1.5" stroke-linecap="round" stroke-linejoin="round"/>
</g>
<defs>
<clipPath id="clip0_825_2081">
<rect width="18" height="18" fill="white"/>
</clipPath>
</defs>
</svg>
