<svg width="24" height="24" viewBox="0 0 24 24" fill="none" xmlns="http://www.w3.org/2000/svg">
<path d="M10 2.89991C10 2.40285 9.5971 1.99991 9.10004 1.99991C8.60299 1.99991 8.20004 2.40285 8.20004 2.89991V4.7001H2.90003C2.40298 4.7001 2.00003 5.10305 2.00003 5.6001C2.00003 6.09716 2.40298 6.5001 2.90003 6.5001H10.1985C10.1932 7.34119 10.1703 7.74714 10.0753 8.12201C9.9428 8.6443 9.70783 9.13505 9.38402 9.56572C9.11093 9.92894 8.74188 10.2414 7.82183 10.9832L6.01123 8.64842C5.70662 8.25563 5.14127 8.18415 4.74849 8.48876C4.3557 8.79336 4.28422 9.35871 4.58882 9.7515L6.41943 12.112L2.33572 15.3989C1.94851 15.7106 1.88726 16.2772 2.19892 16.6644C2.51058 17.0516 3.07713 17.1128 3.46434 16.8012L7.52269 13.5347L8.38882 14.6515C8.69343 15.0443 9.25878 15.1158 9.65156 14.8112C10.0443 14.5066 10.1158 13.9413 9.81123 13.5485L8.92515 12.4059C9.81564 11.6893 10.3896 11.2235 10.8227 10.6474C11.2899 10.0261 11.6289 9.31806 11.82 8.56452C11.969 7.97711 11.9948 7.36093 11.9992 6.5001H14.7C15.1971 6.5001 15.6 6.09716 15.6 5.6001C15.6 5.10305 15.1971 4.7001 14.7 4.7001H10V2.89991Z" fill="white"/>
<path fill-rule="evenodd" clip-rule="evenodd" d="M15.9077 8.50296C15.7563 8.19515 15.4431 8.00015 15.1 8.00015C14.757 8.00015 14.4438 8.19515 14.2924 8.50296L8.29243 20.7029C8.07307 21.1489 8.25682 21.6884 8.70286 21.9077C9.14889 22.1271 9.6883 21.9433 9.90766 21.4973L11.9227 17.4H18.2774L20.2924 21.4973C20.5118 21.9433 21.0512 22.1271 21.4972 21.9077C21.9433 21.6884 22.127 21.1489 21.9077 20.7029L15.9077 8.50296ZM17.3921 15.6H12.808L15.1 10.9395L17.3921 15.6Z" fill="white"/>
</svg>
