<svg width="25" height="24" viewBox="0 0 25 24" fill="none" xmlns="http://www.w3.org/2000/svg">
<path fill-rule="evenodd" clip-rule="evenodd" d="M12.6688 3.8C10.542 3.8 8.8188 5.52292 8.8188 7.64708C8.8188 10.1038 10.2757 12.7479 11.606 14.6239C12.1578 15.4021 13.2062 15.4001 13.7551 14.6201C15.0747 12.7447 16.5188 10.1029 16.5188 7.64708C16.5188 5.52292 14.7956 3.8 12.6688 3.8ZM7.0188 7.64708C7.0188 4.52776 9.54891 2 12.6688 2C15.7887 2 18.3188 4.52776 18.3188 7.64708C18.3188 10.695 16.5817 13.7309 15.2272 15.6559C13.9629 17.4527 11.4085 17.4572 10.1377 15.6651C8.77305 13.7407 7.0188 10.7004 7.0188 7.64708Z" fill="white"/>
<path d="M14.4188 7.74998C14.4188 8.71647 13.6353 9.49998 12.6688 9.49998C11.7023 9.49998 10.9188 8.71647 10.9188 7.74998C10.9188 6.78348 11.7023 5.99998 12.6688 5.99998C13.6353 5.99998 14.4188 6.78348 14.4188 7.74998Z" fill="white"/>
<path fill-rule="evenodd" clip-rule="evenodd" d="M17.8775 14.3208C18.1974 13.9403 18.7651 13.8912 19.1456 14.211C19.9783 14.911 20.6711 15.7999 20.6711 17C20.6711 18.7532 19.6073 20.0376 18.1325 20.8364C16.677 21.6248 14.7386 22.0015 12.6665 22.0015C10.5761 22.0015 8.6393 21.5699 7.19112 20.7575C5.744 19.9456 4.6665 18.6694 4.6665 17C4.6665 15.8112 5.37885 14.9041 6.18072 14.2167C6.5581 13.8932 7.12627 13.9368 7.44977 14.3142C7.77328 14.6916 7.72961 15.2597 7.35224 15.5832C6.70067 16.1418 6.4665 16.5935 6.4665 17C6.4665 17.7887 6.95898 18.5633 8.07185 19.1876C9.18365 19.8114 10.7968 20.2015 12.6665 20.2015C14.5544 20.2015 16.1683 19.8532 17.2752 19.2537C18.3626 18.6647 18.8711 17.8983 18.8711 17C18.8711 16.5791 18.6514 16.1471 17.9874 15.5889C17.6069 15.269 17.5577 14.7013 17.8775 14.3208Z" fill="white"/>
</svg>
