<svg width="24" height="24" viewBox="0 0 24 24" fill="none" xmlns="http://www.w3.org/2000/svg">
<path fill-rule="evenodd" clip-rule="evenodd" d="M12.0156 4.9001C7.41635 4.9001 3.93138 8.07216 3.93138 11.7069C3.93138 13.0129 4.36899 14.2387 5.14145 15.2781C5.2568 15.4333 5.31909 15.6215 5.31909 15.8149C5.31909 17.1946 4.77939 18.4987 4.22014 19.7355C5.93354 19.5413 7.05507 18.9849 7.73282 18.188C7.97864 17.899 8.37933 17.7952 8.73458 17.9285C9.73455 18.3037 10.8441 18.5137 12.0156 18.5137C16.6148 18.5137 20.0998 15.3416 20.0998 11.7069C20.0998 8.07216 16.6148 4.9001 12.0156 4.9001ZM2.13138 11.7069C2.13138 6.82893 6.69114 3.1001 12.0156 3.1001C17.34 3.1001 21.8998 6.82893 21.8998 11.7069C21.8998 16.5848 17.34 20.3137 12.0156 20.3137C10.8431 20.3137 9.71557 20.136 8.66809 19.8082C7.42001 20.9612 5.61572 21.5129 3.41995 21.5991C2.49303 21.6355 1.82153 20.6718 2.21092 19.8067C2.73945 18.6243 3.40814 17.4039 3.50846 16.0879C2.63761 14.8158 2.13138 13.3153 2.13138 11.7069Z" fill="white"/>
</svg>
