<svg width="24" height="24" viewBox="0 0 24 24" fill="none" xmlns="http://www.w3.org/2000/svg">
<path fill-rule="evenodd" clip-rule="evenodd" d="M9.5001 3.09998C5.55999 3.09998 2.1001 5.83028 2.1001 9.49998C2.1001 10.7102 2.48765 11.834 3.14614 12.7861C2.92135 13.8448 2.56456 14.7615 2.35379 15.2492C2.03067 15.9968 2.58878 16.975 3.54983 16.8457C4.28967 16.7462 5.88556 16.4529 7.29836 15.6125C7.99553 15.7997 8.73531 15.9 9.5001 15.9C13.4402 15.9 16.9001 13.1697 16.9001 9.49998C16.9001 5.83028 13.4402 3.09998 9.5001 3.09998ZM3.9001 9.49998C3.9001 7.09454 6.26051 4.89998 9.5001 4.89998C12.7397 4.89998 15.1001 7.09454 15.1001 9.49998C15.1001 11.9054 12.7397 14.1 9.5001 14.1C8.77003 14.1 8.07556 13.9849 7.44021 13.7775C7.1742 13.6906 6.88292 13.7325 6.65209 13.8907C5.95811 14.3663 5.13822 14.6609 4.43885 14.8407C4.64325 14.2433 4.85333 13.5125 4.99147 12.7238C5.0359 12.4701 4.96952 12.2095 4.80913 12.008C4.22591 11.2753 3.9001 10.4136 3.9001 9.49998Z" fill="white"/>
<path d="M18.9755 8.42465C18.6132 8.76494 18.5953 9.33451 18.9356 9.69682C19.5585 10.36 19.9549 11.1509 20.0672 12H20.0661C20.0882 12.1619 20.0997 12.3254 20.1001 12.49L20.1001 12.5L20.1 12.5357C20.0916 13.4361 19.7667 14.2849 19.1911 15.008C19.0307 15.2095 18.9643 15.4701 19.0088 15.7238C19.1469 16.5125 19.357 17.2433 19.5614 17.8407C18.862 17.6609 18.0421 17.3663 17.3481 16.8907C17.1173 16.7325 16.826 16.6907 16.56 16.7775C16.3224 16.8551 16.0766 16.9197 15.8237 16.9703C15.5591 17.0232 15.2868 17.0606 15.0081 17.0812C14.841 17.0936 14.6715 17.1 14.5001 17.1C14.1424 17.1 13.7931 17.0724 13.4552 17.0198C12.9641 16.9433 12.504 17.2795 12.4275 17.7707C12.3511 18.2618 12.6873 18.7219 13.1784 18.7983C13.6079 18.8652 14.0497 18.9 14.5001 18.9C14.6681 18.9 14.8348 18.8951 15.0001 18.8856C15.4014 18.8625 15.7944 18.8117 16.1765 18.7353C16.3541 18.6999 16.5293 18.6588 16.7019 18.6125C18.1147 19.4529 19.7106 19.7462 20.4504 19.8457C21.4115 19.975 21.9696 18.9968 21.6464 18.2492C21.4357 17.7615 21.0789 16.8448 20.8541 15.7861C21.5126 14.834 21.9001 13.7102 21.9001 12.5C21.9001 12.3313 21.8928 12.1645 21.8785 12C21.7583 10.6512 21.1564 9.43207 20.2477 8.46452C19.9074 8.10221 19.3378 8.08436 18.9755 8.42465Z" fill="white"/>
</svg>
