<svg width="24" height="24" viewBox="0 0 24 24" fill="none" xmlns="http://www.w3.org/2000/svg">
<path d="M5 9.49692C5 12.2253 6.93161 16.1948 10.7948 21.4056C11.3868 22.2041 12.622 22.1922 13.2051 21.4056C17.0684 16.1948 19 12.2253 19 9.49692C19 5.62862 15.87 2.5 12 2.5C8.13 2.5 5 5.62862 5 9.49692ZM9.5 9.49692C9.5 8.11752 10.62 6.99802 12 6.99802C13.38 6.99802 14.5 8.11752 14.5 9.49692C14.5 10.8763 13.38 11.9958 12 11.9958C10.62 11.9958 9.5 10.8763 9.5 9.49692Z" fill="white" fill-opacity="0.6"/>
</svg>
