<svg width="29" height="28" viewBox="0 0 29 28" fill="none" xmlns="http://www.w3.org/2000/svg">
    <path
        d="M18 8.5C18 6.56603 16.434 5 14.5 5C12.566 5 11 6.56603 11 8.5C11 10.434 12.566 12 14.5 12C16.434 12 18 10.434 18 8.5ZM20 8.5C20 11.5385 17.5385 14 14.5 14C11.4615 14 9 11.5385 9 8.5C9 5.46147 11.4615 3 14.5 3C17.5385 3 20 5.46147 20 8.5ZM7.5 20.6429C7.5 21.5862 7.41987 21.5 7.95588 21.5H21.5441C22.0801 21.5 22 21.5862 22 20.6429C22 18.3547 18.696 17 14.75 17C10.804 17 7.5 18.3547 7.5 20.6429ZM5.5 20.6429C5.5 16.7626 9.79892 15 14.75 15C19.7011 15 24 16.7626 24 20.6429C24 22.6593 23.2189 23.5 21.5441 23.5H7.95588C6.28111 23.5 5.5 22.6593 5.5 20.6429Z"
        fill="white" />
</svg>
