<svg width="20" height="20" viewBox="0 0 20 20" fill="none" xmlns="http://www.w3.org/2000/svg">
<path d="M10.0002 0.833496C15.0628 0.833496 19.1668 4.93755 19.1668 10.0002C19.1668 15.0628 15.0628 19.1668 10.0002 19.1668C4.93755 19.1668 0.833496 15.0628 0.833496 10.0002C0.833496 4.93755 4.93755 0.833496 10.0002 0.833496ZM10.0002 2.50016C5.85803 2.50016 2.50016 5.85803 2.50016 10.0002C2.50016 14.1423 5.85803 17.5002 10.0002 17.5002C14.1423 17.5002 17.5002 14.1423 17.5002 10.0002C17.5002 5.85803 14.1423 2.50016 10.0002 2.50016ZM10.0002 4.16683C13.2218 4.16683 15.8335 6.7785 15.8335 10.0002C15.8335 13.2218 13.2218 15.8335 10.0002 15.8335C6.7785 15.8335 4.16683 13.2218 4.16683 10.0002C4.16683 6.7785 6.7785 4.16683 10.0002 4.16683Z" fill="#E64646"/>
</svg>
