<svg width="25" height="24" viewBox="0 0 25 24" fill="none" xmlns="http://www.w3.org/2000/svg">
<path d="M10.7742 4.04221C10.4167 3.6973 10.4076 3.12907 10.7539 2.77304C11.1003 2.417 11.6709 2.40799 12.0284 2.7529L14.7258 5.35535C14.9011 5.52442 15 5.75703 15 6.00001C15 6.243 14.9011 6.4756 14.7258 6.64467L12.0284 9.2471C11.6708 9.59201 11.1003 9.58299 10.7539 9.22696C10.4076 8.87092 10.4167 8.30269 10.7742 7.95778L11.9488 6.8245C11.0714 6.90282 10.2144 7.16779 9.43756 7.60909C8.18308 8.32173 7.21642 9.44956 6.70408 10.7983C6.19175 12.147 6.16582 13.6322 6.63077 14.998C7.09573 16.3638 8.02245 17.5247 9.25129 18.2807C10.4801 19.0366 11.9341 19.3404 13.3629 19.1396C14.7916 18.9388 16.1056 18.246 17.0784 17.1806C18.0513 16.1152 18.6221 14.7439 18.6926 13.3028C18.7603 11.9178 18.3618 10.5517 17.5633 9.42185C17.2765 9.01593 17.373 8.45431 17.7789 8.16745C18.1848 7.88058 18.7464 7.9771 19.0333 8.38302C20.0636 9.84089 20.5779 11.6036 20.4904 13.3908C20.3995 15.2502 19.6629 17.0196 18.4076 18.3944C17.1523 19.7691 15.4569 20.663 13.6134 20.9221C11.7699 21.1812 9.89371 20.7892 8.30811 19.8138C6.72251 18.8383 5.52675 17.3404 4.92681 15.5781C4.32687 13.8158 4.36032 11.8994 5.02139 10.1591C5.68247 8.4188 6.92979 6.96353 8.54847 6.04399C9.55374 5.47292 10.6632 5.13068 11.7988 5.03074L10.7742 4.04221Z" fill="white"/>
</svg>
