<svg width="18" height="18" viewBox="0 0 18 18" fill="none" xmlns="http://www.w3.org/2000/svg">
<rect x="1" y="1" width="16" height="16" rx="8" fill="white"/>
<path d="M8.64645 8.14138L9.00001 8.49494L9.35356 8.14138L11.6046 5.89033C11.7441 5.75086 11.9702 5.75086 12.1097 5.89033C12.2492 6.0298 12.2492 6.25593 12.1097 6.39541L9.85863 8.64646L9.50508 9.00001L9.85863 9.35357L12.1097 11.6046C12.2492 11.7441 12.2492 11.9702 12.1097 12.1097C11.9702 12.2492 11.7441 12.2492 11.6046 12.1097L9.35356 9.85864L9.00001 9.50509L8.64645 9.85864L6.3954 12.1097C6.25593 12.2492 6.0298 12.2492 5.89033 12.1097C5.75085 11.9702 5.75085 11.7441 5.89033 11.6046L8.14138 9.35357L8.49493 9.00001L8.14138 8.64646L5.89032 6.39541C5.75085 6.25593 5.75085 6.0298 5.89032 5.89033C6.0298 5.75086 6.25593 5.75086 6.3954 5.89033L8.64645 8.14138ZM9 17.5C13.6944 17.5 17.5 13.6944 17.5 9C17.5 4.30558 13.6944 0.5 9 0.5C4.30558 0.5 0.5 4.30558 0.5 9C0.5 13.6944 4.30558 17.5 9 17.5Z" fill="#B70000" stroke="white"/>
</svg>
