<svg width="20" height="21" viewBox="0 0 20 21" fill="none" xmlns="http://www.w3.org/2000/svg">
<path fill-rule="evenodd" clip-rule="evenodd" d="M17.8924 2.60789C17.4723 2.18772 16.8404 1.9534 16.2165 1.81012C15.5721 1.6621 14.8344 1.58944 14.1094 1.55935C12.6573 1.49911 11.1735 1.60694 10.4151 1.67664C9.94177 1.72013 9.50477 1.91375 9.15294 2.21614C6.52601 4.47391 4.13457 6.81432 1.84652 9.36975C0.799587 10.539 0.788483 12.2848 1.73123 13.5024C3.28602 15.5105 4.98986 17.2143 6.99792 18.7691C8.21553 19.7118 9.96136 19.7008 11.1306 18.6538C13.686 16.3658 16.0264 13.9743 18.2842 11.3474C18.5866 10.9955 18.7802 10.5585 18.8237 10.0853C18.8934 9.32684 19.0012 7.84304 18.9409 6.39094C18.9109 5.66594 18.8382 4.92823 18.6902 4.28377C18.5469 3.65992 18.3126 3.02805 17.8924 2.60789ZM9.16377 7.16672C8.70352 7.16672 8.3304 7.53982 8.3304 8.00005C8.3304 8.46029 8.70352 8.83342 9.16377 8.83342H9.17619C9.63644 8.83342 10.0095 8.46029 10.0095 8.00005C10.0095 7.53982 9.63644 7.16672 9.17619 7.16672H9.16377ZM9.16686 13.8334C8.70661 13.8334 8.33349 14.2065 8.33349 14.6668C8.33349 15.1269 8.70661 15.5001 9.16686 15.5001H9.17927C9.63952 15.5001 10.0126 15.1269 10.0126 14.6668C10.0126 14.2065 9.63952 13.8334 9.17927 13.8334H9.16686ZM5.00032 11.3334C5.00032 10.8732 5.37342 10.5001 5.83366 10.5001H12.5004C12.9605 10.5001 13.3337 10.8732 13.3337 11.3334C13.3337 11.7936 12.9605 12.1668 12.5004 12.1668H5.83366C5.37342 12.1668 5.00032 11.7936 5.00032 11.3334ZM14.5837 4.66672C15.274 4.66672 15.8337 5.22636 15.8337 5.91672C15.8337 6.60708 15.274 7.16672 14.5837 7.16672C13.8933 7.16672 13.3337 6.60708 13.3337 5.91672C13.3337 5.22636 13.8933 4.66672 14.5837 4.66672Z" fill="white"/>
</svg>
