<svg width="16" height="16" viewBox="0 0 16 16" fill="none" xmlns="http://www.w3.org/2000/svg">
<g clip-path="url(#clip0_445_1839)">
<path d="M10.6881 7.33332C11.1061 7.33332 11.4233 6.94861 11.2546 6.56618C10.7033 5.31662 9.45351 4.44444 8 4.44444C7.87001 4.44444 7.74165 4.45142 7.61528 4.46502C7.19937 4.50977 7.02444 4.97693 7.23359 5.33919L8.19245 6.99999C8.31154 7.20626 8.53163 7.33332 8.7698 7.33332L10.6881 7.33332Z" fill="white"/>
<path d="M6.07954 6.00698C5.87032 5.64461 5.37801 5.56247 5.13061 5.89993C4.69921 6.48837 4.44444 7.21444 4.44444 8C4.44444 8.78559 4.69922 9.51167 5.13065 10.1001C5.37806 10.4376 5.87036 10.3554 6.07957 9.99307L7.03779 8.33339C7.15688 8.12712 7.15688 7.87299 7.03779 7.66672L6.07954 6.00698Z" fill="white"/>
<path d="M7.23365 10.6608C7.02449 11.0231 7.19943 11.4902 7.61534 11.535C7.7417 11.5486 7.87003 11.5556 8 11.5556C9.45352 11.5556 10.7033 10.6834 11.2546 9.4338C11.4233 9.05137 11.1061 8.66666 10.6881 8.66666H8.76987C8.5317 8.66666 8.31161 8.79372 8.19252 8.99999L7.23365 10.6608Z" fill="white"/>
<path fill-rule="evenodd" clip-rule="evenodd" d="M11.6707 2.97533L12.2439 1.98247C12.428 1.66361 12.3188 1.25588 11.9999 1.07179C11.681 0.88769 11.2733 0.99694 11.0892 1.3158L10.5166 2.30769C9.94059 2.05268 9.31867 1.88252 8.66667 1.81307V0.666667C8.66667 0.298477 8.36819 0 8 0C7.63181 0 7.33333 0.298477 7.33333 0.666667V1.81307C6.68132 1.88252 6.05941 2.05268 5.48343 2.30769L4.91078 1.31582C4.72668 0.99696 4.31896 0.88771 4.00009 1.0718C3.68123 1.2559 3.57198 1.66363 3.75608 1.98249L4.3293 2.97533C3.81141 3.35431 3.35431 3.81142 2.97533 4.3293L1.9823 3.75597C1.66344 3.57188 1.25571 3.68113 1.07161 3.99999C0.88752 4.31885 0.99677 4.72658 1.31563 4.91067L2.30769 5.48344C2.05268 6.05941 1.88252 6.68132 1.81307 7.33333H0.666667C0.298477 7.33333 0 7.63181 0 8C0 8.36819 0.298477 8.66667 0.666667 8.66667H1.81307C1.88252 9.31867 2.05268 9.94058 2.30768 10.5165L1.31563 11.0893C0.99677 11.2734 0.88752 11.6811 1.07161 12C1.25571 12.3189 1.66344 12.4281 1.9823 12.244L2.97532 11.6707C3.35426 12.1885 3.81133 12.6456 4.32916 13.0246L3.75589 14.0175C3.57179 14.3364 3.68105 14.7441 3.99991 14.9282C4.31877 15.1123 4.7265 15.003 4.91059 14.6842L5.48329 13.6922C6.0593 13.9473 6.68127 14.1175 7.33333 14.1869V15.3333C7.33333 15.7015 7.63181 16 8 16C8.36819 16 8.66667 15.7015 8.66667 15.3333V14.1869C9.31873 14.1175 9.94069 13.9473 10.5167 13.6922L11.0894 14.6842C11.2735 15.0031 11.6812 15.1123 12.0001 14.9282C12.319 14.7441 12.4282 14.3364 12.2441 14.0175L11.6708 13.0246C12.1886 12.6456 12.6457 12.1886 13.0246 11.6707L14.0176 12.244C14.3364 12.4281 14.7441 12.3189 14.9282 12C15.1123 11.6811 15.0031 11.2734 14.6842 11.0893L13.6923 10.5166C13.9473 9.94063 14.1175 9.31869 14.1869 8.66667H15.3333C15.7015 8.66667 16 8.36819 16 8C16 7.63181 15.7015 7.33333 15.3333 7.33333H14.1869C14.1175 6.6813 13.9473 6.05936 13.6923 5.48337L14.6842 4.91067C15.0031 4.72658 15.1123 4.31885 14.9282 3.99999C14.7441 3.68113 14.3364 3.57188 14.0176 3.75597L13.0246 4.32924C12.6457 3.81138 12.1886 3.35429 11.6707 2.97533ZM8 3.11111C7.12106 3.11111 6.2963 3.34305 5.58358 3.74907C5.57446 3.75494 5.56515 3.76062 5.55565 3.76611C5.54647 3.7714 5.53722 3.77646 5.5279 3.78128C4.80594 4.20525 4.20245 4.80925 3.7791 5.53162C3.77488 5.53964 3.77049 5.54762 3.76592 5.55554C3.76116 5.56379 3.75625 5.57189 3.7512 5.57985C3.34386 6.29342 3.11111 7.11953 3.11111 8C3.11111 8.88038 3.34381 9.7064 3.75107 10.4199C3.75617 10.4279 3.76112 10.4361 3.76592 10.4444C3.77053 10.4524 3.77496 10.4605 3.77921 10.4686C4.20284 11.1913 4.8068 11.7956 5.52933 12.2196C5.5381 12.2241 5.54681 12.2289 5.55546 12.2339C5.56445 12.2391 5.57326 12.2444 5.58191 12.25C6.29501 12.6566 7.12038 12.8889 8 12.8889C8.87975 12.8889 9.70522 12.6565 10.4184 12.2498C10.4269 12.2443 10.4357 12.239 10.4445 12.2339C10.4531 12.229 10.4617 12.2242 10.4704 12.2197C11.1923 11.7962 11.7959 11.1927 12.2195 10.4708C12.2241 10.462 12.2289 10.4532 12.2339 10.4444C12.2392 10.4354 12.2446 10.4265 12.2501 10.4178C12.6566 9.70476 12.8889 8.8795 12.8889 8C12.8889 7.12041 12.6566 6.29507 12.25 5.58199C12.2445 5.57334 12.2391 5.56453 12.2339 5.55554C12.2289 5.54689 12.2242 5.53817 12.2196 5.52939C11.7963 4.80792 11.1932 4.20465 10.4718 3.78111C10.4626 3.77634 10.4534 3.77133 10.4444 3.76609C10.4349 3.76066 10.4257 3.75503 10.4167 3.74922C9.70391 3.34311 8.87905 3.11111 8 3.11111Z" fill="white"/>
</g>
<defs>
<clipPath id="clip0_445_1839">
<rect width="16" height="16" fill="white"/>
</clipPath>
</defs>
</svg>
