<svg width="29" height="28" viewBox="0 0 29 28" fill="none" xmlns="http://www.w3.org/2000/svg">
    <path fill-rule="evenodd" clip-rule="evenodd"
        d="M4.95143 6.02453C4.63585 6.00066 4.22845 6 3.61149 6H3.5C2.94772 6 2.5 5.55229 2.5 5C2.5 4.44772 2.94772 4 3.5 4H3.61149C3.6236 4 3.63567 4 3.6477 4C4.21879 3.99999 4.70228 3.99998 5.10225 4.03022C5.52318 4.06206 5.92354 4.13111 6.31476 4.30661C6.91723 4.57689 7.43096 5.01208 7.79661 5.56193C7.89093 5.70377 7.96892 5.8498 8.03497 6L22.8166 6C23.327 5.99998 23.775 5.99995 24.1389 6.03248C24.5188 6.06644 24.9307 6.14355 25.3091 6.38011C25.8417 6.713 26.2294 7.23414 26.3952 7.83987C26.5131 8.27032 26.4686 8.68695 26.3919 9.06065C26.3185 9.41853 26.1898 9.84762 26.0431 10.3365L24.642 15.0069C24.6275 15.0551 24.6132 15.1029 24.5991 15.1503C24.398 15.8244 24.2216 16.4158 23.8536 16.8753C23.5319 17.2769 23.1124 17.5891 22.6353 17.7817C22.0894 18.0022 21.4723 18.0012 20.7689 18.0002C20.7194 18.0001 20.6695 18 20.6191 18H11.6761C11.2242 18 10.8308 18 10.5031 17.9753C10.1546 17.9489 9.80873 17.8908 9.46633 17.7372C8.94992 17.5055 8.50958 17.1325 8.19618 16.6612C7.98837 16.3487 7.87421 16.0171 7.79091 15.6777C7.7126 15.3585 7.64793 14.9705 7.57365 14.5247L6.57067 8.5068C6.46925 7.89824 6.40162 7.49649 6.3262 7.18913C6.25377 6.89399 6.19008 6.7579 6.13122 6.6694C5.97452 6.43375 5.75435 6.24724 5.49614 6.13141C5.39917 6.0879 5.25446 6.04745 4.95143 6.02453ZM8.51378 8C8.5216 8.0468 8.5295 8.09424 8.53751 8.1423L9.54074 14.1617C9.62238 14.6515 9.67516 14.9642 9.73328 15.201C9.7884 15.4257 9.83233 15.5098 9.86156 15.5537C9.96603 15.7108 10.1128 15.8352 10.2849 15.9124C10.3331 15.934 10.4233 15.9635 10.6539 15.9809C10.8971 15.9993 11.2142 16 11.7108 16H20.6191C21.5616 16 21.75 15.9823 21.8864 15.9272C22.0454 15.863 22.1853 15.759 22.2925 15.6251C22.3844 15.5103 22.4555 15.3349 22.7263 14.4322L24.1153 9.80229C24.2777 9.26086 24.3795 8.91839 24.4327 8.65879C24.4753 8.4511 24.4678 8.37818 24.466 8.36707C24.4327 8.24661 24.3556 8.14295 24.2498 8.07651C24.2396 8.07157 24.1719 8.04341 23.9608 8.02454C23.6969 8.00094 23.3396 8 22.7743 8H8.51378ZM24.2512 8.07727L24.2498 8.07651L24.2512 8.07727ZM24.4656 8.36551L24.466 8.36707L24.4656 8.36551Z"
        fill="white" />
    <path
        d="M9.5 22C9.5 20.8954 10.3954 20 11.5 20C12.6046 20 13.5 20.8954 13.5 22C13.5 23.1046 12.6046 24 11.5 24C10.3954 24 9.5 23.1046 9.5 22Z"
        fill="white" />
    <path
        d="M18.5 22C18.5 20.8954 19.3954 20 20.5 20C21.6046 20 22.5 20.8954 22.5 22C22.5 23.1046 21.6046 24 20.5 24C19.3954 24 18.5 23.1046 18.5 22Z"
        fill="white" />
</svg>
