<svg width="16" height="16" viewBox="0 0 16 16" fill="none" xmlns="http://www.w3.org/2000/svg">
<path fill-rule="evenodd" clip-rule="evenodd" d="M13.9995 1.5C10.4096 1.5 7.49951 4.41015 7.49951 8C7.49951 11.5899 10.4096 14.5 13.9995 14.5C14.2756 14.5 14.4995 14.2761 14.4995 14V12.2001C14.4995 12.0896 14.41 12.0001 14.2995 12.0001H13.9995C11.7904 12.0001 9.99951 10.2092 9.99951 8.00007C9.99951 5.79093 11.7904 4.00007 13.9995 4.00007L14.2995 4.00005C14.41 4.00004 14.4995 3.9105 14.4995 3.80005V2C14.4995 1.72386 14.2756 1.5 13.9995 1.5ZM14.4995 5.53338C14.4995 5.42292 14.41 5.33337 14.2995 5.33338L13.9995 5.33341C12.5268 5.33341 11.3328 6.52731 11.3328 8.00007C11.3328 9.47287 12.5268 10.6667 13.9995 10.6667H14.2995C14.41 10.6667 14.4995 10.5772 14.4995 10.4667V5.53338Z" fill="white"/>
<path d="M2.16618 1.3335C2.53437 1.3335 2.83285 1.63198 2.83285 2.00016V4.3335C2.83285 4.51759 2.98209 4.66683 3.16618 4.66683C3.35027 4.66683 3.49951 4.51759 3.49951 4.3335V2.00016C3.49951 1.63198 3.79799 1.3335 4.16618 1.3335C4.53437 1.3335 4.83285 1.63198 4.83285 2.00016V4.3335C4.83285 4.51759 4.98209 4.66683 5.16618 4.66683C5.35027 4.66683 5.49951 4.51759 5.49951 4.3335V2.00016C5.49951 1.63198 5.79799 1.3335 6.16618 1.3335C6.53437 1.3335 6.83285 1.63198 6.83285 2.00016V4.90166C6.83285 5.85256 6.53697 6.63094 6.03053 7.1783C5.72994 7.50316 5.36714 7.73296 4.97855 7.86543C4.89332 7.8945 4.83285 7.9727 4.83285 8.0627V14.0002C4.83285 14.3684 4.53437 14.6668 4.16618 14.6668C3.79799 14.6668 3.49951 14.3684 3.49951 14.0002V8.0627C3.49951 7.97263 3.43904 7.8945 3.35381 7.86543C2.96522 7.7329 2.60241 7.5031 2.30183 7.17823C1.79539 6.63084 1.49951 5.85245 1.49951 4.90155V2.00016C1.49951 1.63198 1.79799 1.3335 2.16618 1.3335Z" fill="white"/>
</svg>
