<svg width="17" height="16" viewBox="0 0 17 16" fill="none" xmlns="http://www.w3.org/2000/svg">
<g clip-path="url(#clip0_445_1584)">
<path fill-rule="evenodd" clip-rule="evenodd" d="M8.3335 0.25C8.74771 0.25 9.0835 0.585786 9.0835 1V2.25C9.0835 2.66421 8.74771 3 8.3335 3C7.91928 3 7.5835 2.66421 7.5835 2.25V1C7.5835 0.585786 7.91928 0.25 8.3335 0.25ZM4.8335 8C4.8335 6.067 6.4005 4.5 8.3335 4.5C10.2665 4.5 11.8335 6.067 11.8335 8C11.8335 9.933 10.2665 11.5 8.3335 11.5C6.4005 11.5 4.8335 9.933 4.8335 8ZM9.0835 13.75C9.0835 13.3358 8.74771 13 8.3335 13C7.91928 13 7.5835 13.3358 7.5835 13.75V15C7.5835 15.4142 7.91928 15.75 8.3335 15.75C8.74771 15.75 9.0835 15.4142 9.0835 15V13.75ZM16.0835 8C16.0835 8.41421 15.7477 8.75 15.3335 8.75H14.0835C13.6693 8.75 13.3335 8.41421 13.3335 8C13.3335 7.58579 13.6693 7.25 14.0835 7.25H15.3335C15.7477 7.25 16.0835 7.58579 16.0835 8ZM2.5835 8.75C2.99771 8.75 3.3335 8.41421 3.3335 8C3.3335 7.58579 2.99771 7.25 2.5835 7.25H1.3335C0.919283 7.25 0.583496 7.58579 0.583496 8C0.583496 8.41421 0.919283 8.75 1.3335 8.75H2.5835ZM2.85342 2.51992C3.14631 2.22702 3.62119 2.22702 3.91408 2.51992L4.79796 3.4038C5.09086 3.69669 5.09086 4.17157 4.79796 4.46446C4.50507 4.75735 4.0302 4.75735 3.7373 4.46446L2.85342 3.58058C2.56053 3.28768 2.56053 2.81281 2.85342 2.51992ZM12.9297 11.5355C12.6368 11.2426 12.1619 11.2426 11.869 11.5355C11.5761 11.8284 11.5761 12.3033 11.869 12.5962L12.7529 13.4801C13.0458 13.773 13.5207 13.773 13.8136 13.4801C14.1065 13.1872 14.1065 12.7123 13.8136 12.4194L12.9297 11.5355ZM13.8136 2.51992C14.1065 2.81281 14.1065 3.28768 13.8136 3.58058L12.9297 4.46446C12.6368 4.75735 12.1619 4.75735 11.869 4.46446C11.5761 4.17157 11.5761 3.69669 11.869 3.4038L12.7529 2.51992C13.0458 2.22702 13.5207 2.22702 13.8136 2.51992ZM4.79796 12.5962C5.09085 12.3033 5.09085 11.8284 4.79796 11.5355C4.50507 11.2426 4.03019 11.2426 3.7373 11.5355L2.85342 12.4194C2.56052 12.7123 2.56052 13.1872 2.85342 13.4801C3.14631 13.773 3.62119 13.773 3.91408 13.4801L4.79796 12.5962Z" fill="white"/>
</g>
<defs>
<clipPath id="clip0_445_1584">
<rect width="16" height="16" fill="white" transform="translate(0.333496)"/>
</clipPath>
</defs>
</svg>
