<svg width="18" height="18" viewBox="0 0 18 18" fill="none" xmlns="http://www.w3.org/2000/svg">
<path d="M0 4.5C0 2.01472 2.01472 0 4.5 0H13.5C15.9853 0 18 2.01472 18 4.5V13.5C18 15.9853 15.9853 18 13.5 18H4.5C2.01472 18 0 15.9853 0 13.5V4.5Z" fill="url(#paint0_linear_1733_4091)"/>
<path d="M6.65806 14.3841C5.74471 14.3841 5.02364 14.1731 4.49485 13.7511C3.97141 13.3238 3.70969 12.6295 3.70969 11.6681V8.18289C3.70969 7.95321 3.65895 7.78229 3.55747 7.67013C3.45598 7.55796 3.33847 7.46716 3.20494 7.39772C3.07141 7.32295 2.9539 7.23482 2.85242 7.13333C2.75094 7.02651 2.7002 6.86627 2.7002 6.65262C2.7002 6.43363 2.77764 6.26271 2.93254 6.13986C3.08744 6.01167 3.26904 5.94758 3.47735 5.94758H3.83788C3.99278 5.94758 4.145 5.87013 4.29456 5.71523C4.44945 5.55499 4.60435 5.35737 4.75925 5.12235C4.91948 4.88734 5.08506 4.65499 5.25598 4.42532C5.43224 4.19031 5.61919 3.99535 5.81681 3.84045C6.01444 3.68022 6.23076 3.6001 6.46577 3.6001C6.73284 3.6001 6.94114 3.67488 7.0907 3.82443C7.24025 3.97398 7.31503 4.18229 7.31503 4.44936V5.94758H9.13373C9.33669 5.94758 9.51028 5.99565 9.6545 6.09179C9.79871 6.18793 9.87082 6.34817 9.87082 6.5725C9.87082 6.87161 9.77468 7.09861 9.58239 7.25351C9.39545 7.40841 9.16844 7.51256 8.90138 7.56597C8.63432 7.61404 8.38328 7.63808 8.14827 7.63808H7.31503V10.8108C7.31503 11.0725 7.36577 11.3209 7.46726 11.5559C7.56874 11.7856 7.77705 11.9004 8.09218 11.9004C8.30049 11.9004 8.47675 11.8416 8.62097 11.7241C8.77052 11.6013 8.90939 11.4811 9.03758 11.3636C9.17111 11.2461 9.31266 11.1873 9.46221 11.1873C9.60109 11.1873 9.69723 11.2541 9.75064 11.3876C9.80939 11.5212 9.83877 11.6413 9.83877 11.7482C9.83877 12.2876 9.67586 12.755 9.35005 13.1502C9.02423 13.5455 8.61563 13.8499 8.12423 14.0636C7.63818 14.2772 7.14945 14.3841 6.65806 14.3841Z" fill="white"/>
<path d="M12.6029 14.4001C12.2343 14.4001 11.9112 14.3013 11.6334 14.1037C11.3557 13.906 11.1367 13.6497 10.9765 13.3345C10.8216 13.0194 10.7441 12.6882 10.7441 12.341C10.7441 11.9885 10.8216 11.6574 10.9765 11.3476C11.1367 11.0324 11.3557 10.7787 11.6334 10.5864C11.9112 10.3888 12.2343 10.29 12.6029 10.29C12.9768 10.29 13.3026 10.3888 13.5803 10.5864C13.8634 10.7787 14.0851 11.0298 14.2453 11.3396C14.4055 11.6494 14.4857 11.9832 14.4857 12.341C14.4857 12.6936 14.4055 13.0274 14.2453 13.3425C14.0851 13.6523 13.8634 13.906 13.5803 14.1037C13.2972 14.3013 12.9714 14.4001 12.6029 14.4001Z" fill="white"/>
<defs>
<linearGradient id="paint0_linear_1733_4091" x1="0" y1="0" x2="18" y2="18" gradientUnits="userSpaceOnUse">
<stop stop-color="#9C854F"/>
<stop offset="1" stop-color="#775A17"/>
</linearGradient>
</defs>
</svg>
