<svg width="40" height="40" viewBox="0 0 40 40" fill="none" xmlns="http://www.w3.org/2000/svg">
<path fill-rule="evenodd" clip-rule="evenodd" d="M5.85786 5.85786C3.85316 7.86256 3.12916 10.663 3.68588 13.2425C1.46826 14.6728 0 17.1649 0 20C-3.48312e-07 22.835 1.46826 25.3272 3.68588 26.7576C3.12916 29.337 3.85316 32.1374 5.85786 34.1422C7.86258 36.1468 10.663 36.8708 13.2425 36.3142C14.6728 38.5318 17.1649 40 20 40C22.835 40 25.3272 38.5318 26.7576 36.3142C29.337 36.8708 32.1374 36.1468 34.1422 34.1422C36.1468 32.1374 36.8708 29.337 36.3142 26.7576C38.5318 25.3272 40 22.835 40 20C40 17.1649 38.5318 14.6728 36.3142 13.2425C36.8708 10.663 36.1468 7.86258 34.1422 5.85786C32.1374 3.85316 29.337 3.12916 26.7576 3.68588C25.3272 1.46827 22.835 0 20 0C17.1649 0 14.6728 1.46826 13.2425 3.68586C10.663 3.12916 7.86258 3.85316 5.85786 5.85786Z" fill="#FF3F94"/>
</svg>
