<svg width="20" height="21" viewBox="0 0 20 21" fill="none" xmlns="http://www.w3.org/2000/svg">
<path d="M9.99675 1.54169C10.8712 1.54169 11.5599 2.20213 11.9996 3.09328L13.468 6.05432C13.5125 6.14596 13.6181 6.275 13.7767 6.39305C13.9352 6.51098 14.0905 6.57603 14.1926 6.59319L16.8506 7.03846C17.8107 7.1998 18.6155 7.67043 18.8767 8.48994C19.1377 9.30877 18.7553 10.1597 18.0648 10.8514L18.0642 10.8521L15.9992 12.9341C15.9174 13.0166 15.8257 13.172 15.7682 13.3745C15.7112 13.5757 15.7061 13.7589 15.732 13.8773L15.7323 13.8789L16.3231 16.4545C16.5682 17.5264 16.4869 18.5894 15.7309 19.1452C14.9722 19.7028 13.9356 19.4556 12.9937 18.8947L10.5022 17.4075C10.3975 17.345 10.2178 17.2944 10.0009 17.2944C9.78558 17.2944 9.60216 17.3444 9.49066 17.4092L9.48908 17.4101L7.0024 18.8944C6.06171 19.4573 5.02628 19.7 4.26759 19.1419C3.51207 18.586 3.42678 17.525 3.67259 16.4539L4.26325 13.8789L4.26361 13.8773C4.28951 13.7589 4.28444 13.5757 4.22733 13.3745C4.16983 13.172 4.07816 13.0166 3.99631 12.9341L1.92987 10.8505C1.24387 10.1589 0.862673 9.30869 1.12162 8.49106C1.38132 7.67106 2.18452 7.19985 3.14527 7.0384L5.8011 6.59351L5.80194 6.59337C5.89931 6.57648 6.05225 6.51215 6.2104 6.39392C6.36884 6.27547 6.47466 6.14615 6.51926 6.05432L6.52151 6.04975L7.98801 3.0925L7.9886 3.09133C8.4325 2.20092 9.12333 1.54169 9.99675 1.54169Z" fill="white"/>
</svg>
