<svg width="16" height="16" viewBox="0 0 16 16" fill="none" xmlns="http://www.w3.org/2000/svg">
<g clip-path="url(#clip0_50_895)">
<path d="M3.33325 11.3334C3.33325 11.6871 3.47373 12.0262 3.72378 12.2762C3.97382 12.5263 4.31296 12.6668 4.66659 12.6668C5.02021 12.6668 5.35935 12.5263 5.60939 12.2762C5.85944 12.0262 5.99992 11.6871 5.99992 11.3334C5.99992 10.9798 5.85944 10.6407 5.60939 10.3906C5.35935 10.1406 5.02021 10.0001 4.66659 10.0001C4.31296 10.0001 3.97382 10.1406 3.72378 10.3906C3.47373 10.6407 3.33325 10.9798 3.33325 11.3334Z" stroke="white" stroke-width="1.33333" stroke-linecap="round" stroke-linejoin="round"/>
<path d="M10.0001 11.3334C10.0001 11.6871 10.1405 12.0262 10.3906 12.2762C10.6406 12.5263 10.9798 12.6668 11.3334 12.6668C11.687 12.6668 12.0262 12.5263 12.2762 12.2762C12.5263 12.0262 12.6667 11.6871 12.6667 11.3334C12.6667 10.9798 12.5263 10.6407 12.2762 10.3906C12.0262 10.1406 11.687 10.0001 11.3334 10.0001C10.9798 10.0001 10.6406 10.1406 10.3906 10.3906C10.1405 10.6407 10.0001 10.9798 10.0001 11.3334Z" stroke="white" stroke-width="1.33333" stroke-linecap="round" stroke-linejoin="round"/>
<path d="M3.33325 11.3337H1.99992V8.66703M1.33325 3.33369H8.66658V11.3337M5.99992 11.3337H9.99992M12.6666 11.3337H13.9999V7.33369M13.9999 7.33369H8.66658M13.9999 7.33369L11.9999 4.00036H8.66658" stroke="white" stroke-width="1.33333" stroke-linecap="round" stroke-linejoin="round"/>
<path d="M2.00006 6.0001H4.66673" stroke="white" stroke-width="1.33333" stroke-linecap="round" stroke-linejoin="round"/>
</g>
<defs>
<clipPath id="clip0_50_895">
<rect width="16" height="16" fill="white"/>
</clipPath>
</defs>
</svg>
