<svg width="16" height="16" viewBox="0 0 16 16" fill="none" xmlns="http://www.w3.org/2000/svg">
<path fill-rule="evenodd" clip-rule="evenodd" d="M0.833008 4.6665C0.833008 4.39036 1.05687 4.1665 1.33301 4.1665H5.33301C5.60915 4.1665 5.83301 4.39036 5.83301 4.6665C5.83301 4.94264 5.60915 5.1665 5.33301 5.1665H1.33301C1.05687 5.1665 0.833008 4.94264 0.833008 4.6665ZM0.833008 6.6665C0.833008 6.39036 1.05687 6.1665 1.33301 6.1665H3.99967C4.27581 6.1665 4.49967 6.39036 4.49967 6.6665C4.49967 6.94264 4.27581 7.1665 3.99967 7.1665H1.33301C1.05687 7.1665 0.833008 6.94264 0.833008 6.6665Z" fill="white"/>
<path fill-rule="evenodd" clip-rule="evenodd" d="M3.39893 2.16651H8.03981C8.46594 2.16647 8.84888 2.16643 9.15881 2.20789C9.49714 2.25315 9.84434 2.35823 10.1287 2.64111C10.413 2.92399 10.5387 3.45953 10.5842 3.79615C13.1411 3.95241 15.1663 6.06492 15.1663 8.64797V10.4675C15.1664 10.5806 15.1665 10.6915 15.1538 10.7928C15.0616 11.5288 14.1829 12.1211 13.4431 12.2128C13.1627 13.1499 12.2902 13.8332 11.2572 13.8332C10.2243 13.8332 9.35168 13.1498 9.07134 12.2128H6.92794C6.64763 13.1498 5.77507 13.8332 4.74209 13.8332C3.70692 13.8332 2.83284 13.147 2.55445 12.2068C2.32868 12.1864 1.87648 12.1273 1.6474 11.9957C1.3998 11.8535 1.19418 11.649 1.05123 11.4026C0.918969 11.1747 0.872502 10.9371 0.852035 10.7125C0.832975 10.5032 0.832995 10.2509 0.833009 9.97037V8.16651H3.99968C4.8281 8.16651 5.49968 7.49491 5.49968 6.66651C5.49968 6.49039 5.46932 6.32137 5.41357 6.16438C6.20454 6.12252 6.83301 5.46791 6.83301 4.66651C6.83301 3.83808 6.16144 3.16651 5.33301 3.16651H0.978255C1.0462 2.98002 1.14972 2.80063 1.31007 2.64111C1.59442 2.35823 1.94156 2.25315 2.27992 2.20789C2.58985 2.16643 2.97276 2.16647 3.39893 2.16651ZM11.2577 9.29591C11.0313 9.29591 10.8126 9.32877 10.6062 9.38984V5.09749C12.4325 5.26123 13.8637 6.78824 13.8637 8.64777V10.5922C13.8637 10.7926 13.7383 10.9162 13.4435 10.9162C13.1632 9.97924 12.2907 9.29591 11.2577 9.29591ZM3.7653 11.5644C3.7653 11.0275 4.20284 10.5922 4.74257 10.5922C5.2823 10.5922 5.71984 11.0275 5.71984 11.5644C5.71984 12.1014 5.2823 12.5366 4.74257 12.5366C4.20284 12.5366 3.7653 12.1014 3.7653 11.5644ZM11.2577 10.5922C10.7179 10.5922 10.2804 11.0275 10.2804 11.5644C10.2804 12.1014 10.7179 12.5366 11.2577 12.5366C11.7974 12.5366 12.235 12.1014 12.235 11.5644C12.235 11.0275 11.7974 10.5922 11.2577 10.5922Z" fill="white"/>
</svg>
