<svg width="19" height="18" viewBox="0 0 19 18" fill="none" xmlns="http://www.w3.org/2000/svg">
<g clip-path="url(#clip0_276_8743)">
<path d="M6.91699 4.5C6.91699 5.09674 7.15404 5.66903 7.576 6.09099C7.99796 6.51295 8.57026 6.75 9.16699 6.75C9.76373 6.75 10.336 6.51295 10.758 6.09099C11.1799 5.66903 11.417 5.09674 11.417 4.5C11.417 3.90326 11.1799 3.33097 10.758 2.90901C10.336 2.48705 9.76373 2.25 9.16699 2.25C8.57026 2.25 7.99796 2.48705 7.576 2.90901C7.15404 3.33097 6.91699 3.90326 6.91699 4.5Z" stroke="white" stroke-width="1.5" stroke-linecap="round" stroke-linejoin="round"/>
<path d="M5.29329 6.75H13.0408C13.2164 6.74997 13.3865 6.8116 13.5214 6.92412C13.6563 7.03665 13.7474 7.19294 13.7788 7.36575L15.0065 14.1157C15.0262 14.2238 15.0219 14.3349 14.9939 14.4412C14.9659 14.5474 14.9149 14.6462 14.8445 14.7306C14.7741 14.8149 14.686 14.8828 14.5865 14.9293C14.4869 14.9759 14.3784 15 14.2685 15H4.06554C3.95567 15 3.84714 14.9759 3.74762 14.9293C3.6481 14.8828 3.56003 14.8149 3.48962 14.7306C3.41922 14.6462 3.36821 14.5474 3.34021 14.4412C3.3122 14.3349 3.30788 14.2238 3.32754 14.1157L4.55529 7.36575C4.58673 7.19294 4.67783 7.03665 4.8127 6.92412C4.94756 6.8116 5.11765 6.74997 5.29329 6.75Z" stroke="white" stroke-width="1.5" stroke-linecap="round" stroke-linejoin="round"/>
</g>
<defs>
<clipPath id="clip0_276_8743">
<rect width="18" height="18" fill="white" transform="translate(0.166992)"/>
</clipPath>
</defs>
</svg>
